<?xml version="1.0" standalone="no"?>
<!DOCTYPE svg PUBLIC "-//W3C//DTD SVG 20010904//EN"
 "http://www.w3.org/TR/2001/REC-SVG-20010904/DTD/svg10.dtd">
<svg version="1.0" xmlns="http://www.w3.org/2000/svg"
 width="593.000000pt" height="593.000000pt" viewBox="0 0 593.000000 593.000000"
 preserveAspectRatio="xMidYMid meet">

<g transform="translate(0.000000,593.000000) scale(0.100000,-0.100000)"
fill="#000000" stroke="none">
<path d="M0 2965 l0 -2965 2965 0 2965 0 0 2965 0 2965 -2965 0 -2965 0 0
-2965z m4297 2065 c-1 -11 -5 -20 -9 -20 -11 0 -20 19 -13 30 11 17 24 11 22
-10z m-377 -146 c0 -8 -7 -14 -15 -14 -15 0 -21 21 -9 33 10 9 24 -2 24 -19z
m494 -8 c27 -16 55 -43 70 -69 27 -46 45 -137 28 -137 -6 0 -9 -12 -7 -27 4
-35 -4 -49 -17 -32 -8 11 -9 10 -4 -3 3 -9 -3 -27 -12 -38 l-18 -22 -2 27 c-2
32 -9 45 -23 45 -6 0 -7 -9 -4 -20 4 -13 1 -22 -9 -26 -9 -3 -16 -12 -16 -20
0 -8 -4 -14 -10 -14 -5 0 -10 -6 -10 -14 0 -8 -5 -16 -11 -18 -5 -2 -11 -12
-13 -23 -2 -17 -11 -20 -50 -20 -31 -1 -50 4 -55 14 -5 7 -14 11 -20 7 -6 -4
-9 -12 -6 -17 7 -11 -22 -1 -52 19 -13 8 -20 19 -17 24 4 6 1 9 -7 6 -8 -3
-19 2 -25 10 -8 12 -7 19 7 33 18 18 16 49 -2 49 -4 0 -5 -7 -2 -17 4 -11 3
-14 -5 -9 -8 4 -12 0 -12 -11 -1 -13 -5 -10 -16 10 -9 16 -13 35 -10 42 3 8 0
16 -7 18 -19 6 -12 99 11 143 23 44 62 84 107 108 47 25 161 16 219 -18z
m-748 -44 c76 -39 124 -113 124 -192 0 -33 3 -40 20 -40 24 0 60 -34 60 -56 0
-14 -1 -14 -16 0 -22 23 -39 20 -66 -12 -26 -32 -64 -59 -39 -29 8 10 9 17 3
17 -15 0 -27 -43 -14 -48 8 -2 8 -11 1 -28 -12 -34 -11 -81 5 -124 10 -29 10
-39 -3 -62 -8 -16 -19 -28 -23 -28 -21 0 -5 -16 18 -18 14 -1 23 2 19 8 -3 5
-1 18 4 27 10 17 10 16 11 -2 1 -11 4 -15 6 -9 6 14 94 -27 90 -41 -2 -5 -18
-10 -37 -10 -37 0 -55 -30 -22 -38 16 -4 15 -6 -4 -12 -26 -8 -28 -16 -12 -32
13 -13 5 -43 -12 -43 -6 0 -13 9 -16 19 -4 16 -12 19 -39 17 -19 -1 -34 -2
-34 -1 0 1 7 17 17 35 14 30 14 36 2 59 -9 16 -25 27 -42 29 -15 2 -25 8 -22
13 4 5 -3 9 -14 9 -15 0 -19 4 -14 17 4 11 3 14 -5 9 -7 -4 -12 0 -13 11 -1
17 -2 17 -6 0 -3 -11 -10 -16 -20 -13 -8 3 -17 6 -19 6 -2 0 -4 9 -4 20 0 20
-11 26 -24 13 -12 -13 -30 -10 -44 7 -11 13 -13 11 -9 -12 2 -15 0 -33 -5 -40
-7 -9 -8 -8 -4 5 3 11 1 17 -7 16 -28 -3 -37 2 -36 24 1 17 2 18 6 4 6 -22 23
-12 23 14 0 10 4 19 8 19 5 0 9 7 9 15 0 8 -7 15 -14 15 -8 0 -11 5 -7 12 5 8
0 9 -14 6 -19 -5 -21 -3 -16 19 6 23 5 24 -14 12 -15 -10 -18 -16 -9 -21 7 -4
8 -8 3 -8 -5 0 -1 -9 9 -20 10 -11 22 -17 26 -14 5 3 9 0 9 -5 0 -13 2 -13
-38 -2 -17 5 -32 7 -33 3 -3 -32 -11 -58 -22 -71 -10 -12 -9 -13 2 -6 11 6 12
2 6 -21 -4 -16 -8 -37 -9 -46 0 -13 -7 -15 -30 -11 -26 5 -29 4 -24 -15 4 -12
0 -26 -8 -33 -14 -11 -19 -2 -15 24 1 5 -3 5 -9 2 -6 -4 -20 1 -31 11 -18 17
-20 17 -34 -2 -8 -10 -15 -14 -15 -8 0 6 -10 16 -22 22 -13 6 -18 11 -11 11
14 1 45 62 41 82 -2 11 8 13 45 11 58 -4 97 17 97 53 0 16 6 25 15 25 8 0 15
7 15 16 0 13 -3 14 -14 5 -11 -9 -15 -5 -20 23 -4 18 -18 46 -31 60 -107 116
13 342 198 375 54 9 124 -2 173 -27z m-521 -102 c0 -18 -6 -26 -21 -28 -23 -3
-37 18 -27 44 10 25 48 13 48 -16z m-200 -92 c14 -6 25 -15 25 -20 0 -4 5 -7
12 -5 6 1 14 -7 16 -18 4 -16 2 -17 -11 -7 -12 10 -16 10 -20 -2 -4 -11 -1
-13 10 -9 10 4 14 2 10 -4 -4 -6 3 -8 19 -5 16 3 30 -1 35 -9 13 -20 11 -79
-2 -79 -8 0 -8 -4 0 -14 14 -17 -2 -31 -24 -22 -8 3 -15 1 -15 -4 0 -6 -6 -10
-14 -10 -8 0 -21 -8 -28 -18 -7 -10 -20 -22 -28 -27 -12 -6 -13 -5 -2 6 15 16
16 39 0 39 -6 0 -9 -3 -5 -6 6 -7 -17 -34 -29 -34 -4 0 -13 -8 -20 -17 -10
-14 -13 -15 -14 -4 0 8 8 23 17 33 16 18 16 18 -2 12 -12 -5 -16 -4 -12 3 6
10 -14 25 -36 27 -16 2 -36 51 -37 89 0 43 21 91 47 106 24 14 76 14 108 -1z
m-502 -66 c34 -15 50 -32 28 -32 -5 0 -12 -7 -15 -16 -3 -8 -2 -12 3 -9 5 3
12 1 16 -5 3 -5 1 -10 -4 -10 -21 0 -10 -16 24 -34 19 -10 32 -23 28 -29 -3
-5 2 -16 11 -23 16 -11 29 -60 19 -76 -6 -12 -33 3 -33 18 0 8 -5 14 -11 14
-5 0 -8 -4 -5 -9 10 -16 -23 -20 -39 -5 -17 18 -11 34 13 34 25 0 2 16 -43 30
-22 7 -45 17 -52 22 -7 5 -22 7 -34 3 -21 -7 -22 -5 -14 36 4 24 7 57 6 72 -1
16 1 32 4 36 6 11 50 3 98 -17z m-148 -13 c4 -6 -1 -13 -12 -15 -20 -6 -30
-49 -12 -59 16 -10 -10 -35 -36 -35 -29 0 -32 -9 -30 -91 1 -51 -2 -66 -12
-62 -7 3 -13 -2 -13 -11 0 -9 -4 -16 -9 -16 -5 0 -8 8 -7 17 0 10 -5 18 -13
18 -29 0 -39 71 -20 138 13 47 78 114 116 120 15 2 31 5 35 6 4 0 10 -4 13
-10z m2126 -41 c-10 -28 -47 -53 -56 -39 -3 7 3 11 16 11 16 0 20 5 16 20 -4
17 4 27 25 29 4 1 4 -9 -1 -21z m-480 -98 c14 -8 19 -7 19 1 0 7 8 9 23 4 12
-3 28 -7 36 -7 8 -1 16 -9 18 -19 3 -10 13 -18 22 -17 29 3 80 -23 87 -44 9
-30 -4 -34 -15 -4 -6 14 -16 27 -23 27 -7 1 -24 3 -38 4 -30 3 -53 -13 -46
-32 9 -23 -24 -27 -44 -5 -10 11 -16 23 -12 26 3 4 8 18 10 32 4 32 -18 29
-33 -4 -5 -12 -13 -22 -17 -22 -5 0 -9 -12 -9 -27 -2 -25 -2 -25 -6 -5 -3 13
1 29 7 37 8 9 8 15 0 20 -6 3 -8 11 -5 16 4 5 1 9 -4 9 -6 0 -11 5 -11 10 0
13 16 13 41 0z m-3113 -22 c-16 -6 -25 -15 -23 -26 1 -9 0 -11 -2 -4 -3 6 -11
12 -18 12 -8 0 -16 4 -19 9 -4 5 2 7 11 5 10 -3 27 2 38 10 11 8 24 12 29 8 6
-3 -2 -10 -16 -14z m2257 12 c-3 -5 -12 -10 -18 -10 -7 0 -6 4 3 10 19 12 23
12 15 0z m-2248 -47 c-15 -16 -17 -16 -17 -1 0 9 6 18 13 21 20 7 22 -2 4 -20z
m29 -10 c-10 -10 -19 5 -10 18 6 11 8 11 12 0 2 -7 1 -15 -2 -18z m2004 -13
c0 -5 -5 -10 -11 -10 -6 0 -9 -7 -5 -15 3 -9 -3 -19 -16 -26 -19 -10 -19 -12
-5 -21 11 -5 24 -5 37 2 11 6 20 7 20 1 0 -5 -7 -12 -16 -15 -10 -4 -13 -13
-9 -26 5 -14 2 -20 -10 -20 -12 0 -15 5 -10 21 5 14 3 19 -3 15 -6 -3 -16 7
-23 23 -10 22 -17 27 -26 19 -7 -5 -18 -8 -25 -5 -8 3 -6 6 5 6 13 1 17 6 12
20 -5 16 -2 18 15 14 12 -3 20 0 20 6 0 7 4 10 9 6 5 -3 12 -1 16 5 8 13 25
13 25 0z m-2005 -10 c3 -5 -1 -10 -9 -10 -8 0 -18 5 -21 10 -3 6 1 10 9 10 8
0 18 -4 21 -10z m3201 -39 c-9 -14 -26 -14 -26 0 0 5 5 7 12 3 8 -5 9 -1 4 12
-5 14 -4 16 5 7 6 -6 8 -16 5 -22z m-946 -8 c0 -3 -6 -3 -14 0 -8 3 -17 -1
-20 -10 -4 -9 -9 -13 -13 -10 -10 11 17 36 33 30 8 -3 14 -7 14 -10z m-883
-25 c-3 -8 -6 -5 -6 6 -1 11 2 17 5 13 3 -3 4 -12 1 -19z m1328 -9 c24 -17 48
-28 54 -25 6 4 11 2 11 -3 0 -6 -4 -11 -10 -11 -5 0 -12 -11 -16 -25 -7 -29
18 -75 42 -75 11 0 14 -5 10 -16 -3 -9 -6 -20 -6 -25 0 -6 -6 -7 -12 -3 -9 5
-9 2 1 -9 7 -9 9 -17 4 -17 -5 0 -14 -12 -21 -27 -8 -19 -10 -21 -6 -5 3 12 1
22 -5 22 -6 0 -10 -3 -10 -7 4 -22 -4 -28 -31 -28 -17 0 -30 5 -30 12 0 7 -9
17 -20 23 -23 12 -27 35 -5 27 8 -4 17 -2 21 4 3 6 -3 13 -14 16 -13 3 -23 17
-27 34 -7 30 1 53 14 44 5 -2 8 9 7 25 -1 17 -5 28 -11 27 -5 -2 -9 -13 -7
-25 3 -22 -24 -43 -45 -35 -22 8 -15 32 7 28 16 -3 20 2 20 21 0 13 -4 24 -10
24 -5 0 -7 -8 -3 -17 5 -15 4 -16 -8 -5 -12 11 -11 16 8 32 13 10 32 16 43 13
14 -4 20 0 20 10 0 9 -8 18 -17 20 -10 3 -12 5 -5 6 8 0 33 -13 57 -30z
m-2419 4 c24 -15 25 -18 9 -29 -15 -11 -15 -13 5 -19 17 -5 21 -14 19 -38 -4
-56 0 -67 22 -67 18 0 19 -2 9 -15 -7 -8 -19 -15 -27 -15 -11 0 -14 -7 -11
-25 4 -17 0 -26 -11 -30 -9 -3 -21 -15 -26 -27 -12 -27 -45 -37 -45 -14 0 9
-8 16 -17 16 -44 1 -74 56 -52 96 9 18 15 21 26 13 10 -9 13 -7 13 8 0 10 -4
23 -10 29 -5 5 -6 15 0 24 7 12 12 12 22 2 14 -14 44 -16 52 -4 2 4 0 14 -5
22 -8 13 -10 13 -19 0 -8 -13 -10 -12 -11 5 0 11 -3 15 -5 8 -4 -8 -10 -7 -24
4 -20 18 -16 45 6 36 9 -3 14 1 14 12 0 9 5 13 10 10 6 -3 10 -1 10 4 0 16 17
13 46 -6z m1971 -15 c0 -18 -2 -27 -4 -20 -6 17 -32 15 -39 -3 -4 -8 -16 -15
-28 -14 -21 0 -21 0 2 9 12 5 22 14 22 20 0 5 7 10 15 10 9 0 18 7 21 15 9 22
11 19 11 -17z m1053 -18 c-19 -17 -26 -30 -19 -32 7 -2 14 -13 15 -25 3 -16
-2 -20 -26 -21 -27 -1 -28 1 -20 24 6 14 9 28 8 32 -3 16 16 44 36 52 36 13
39 -1 6 -30z m-1348 3 c-6 -2 -9 -10 -6 -15 4 -7 2 -8 -5 -4 -13 9 -5 26 12
25 9 0 8 -2 -1 -6z m-87 -13 c-3 -5 -12 -10 -18 -10 -7 0 -6 4 3 10 19 12 23
12 15 0z m1495 0 c0 -5 -4 -10 -10 -10 -5 0 -10 5 -10 10 0 6 5 10 10 10 6 0
10 -4 10 -10z m-1478 -12 c-5 -7 -12 -22 -14 -33 -5 -19 -5 -19 -13 -2 -5 12
-2 22 11 32 24 18 29 19 16 3z m-55 -45 c-2 -13 0 -26 6 -30 6 -3 7 -1 3 5 -4
7 0 12 10 12 10 0 25 7 34 15 16 14 18 14 24 0 3 -9 2 -13 -4 -10 -6 3 -10 -1
-10 -10 0 -9 -4 -13 -10 -10 -5 3 -10 -3 -10 -15 0 -17 4 -19 26 -14 21 5 25
4 19 -6 -6 -10 -4 -12 8 -7 9 3 19 1 23 -5 4 -7 3 -8 -4 -4 -7 4 -12 1 -12 -8
0 -16 19 -25 38 -18 10 3 10 7 0 19 -10 12 -9 17 3 27 9 6 14 17 12 24 -6 15
23 16 33 1 17 -29 21 -79 7 -98 -12 -19 -12 -21 1 -21 9 0 16 7 16 15 0 14 11
19 38 16 18 -3 15 46 -5 53 -12 5 -13 10 -5 18 6 6 18 8 28 4 9 -4 14 -9 11
-13 -13 -12 13 -41 32 -36 21 5 37 -12 21 -22 -5 -3 -10 -15 -10 -26 0 -12 -4
-17 -11 -13 -7 4 -7 -1 1 -16 8 -16 14 -19 19 -11 5 7 14 11 21 9 8 -2 17 9
21 27 4 17 7 26 8 20 1 -5 6 -3 11 5 8 13 11 11 16 -7 4 -13 10 -20 15 -18 4
3 5 13 2 22 -4 10 -2 14 4 10 13 -8 10 -82 -4 -82 -6 0 -15 -3 -19 -7 -4 -5 2
-8 14 -8 26 0 29 -15 5 -29 -17 -9 -17 -10 2 -16 66 -21 73 -50 14 -60 -25 -4
-37 -10 -29 -15 8 -5 9 -10 2 -14 -15 -9 -2 -38 14 -32 8 3 11 -2 9 -15 -4
-22 5 -25 24 -6 12 10 13 9 7 -7 -4 -13 0 -23 14 -33 11 -8 20 -21 20 -29 0
-11 -19 -14 -95 -14 -93 0 -115 9 -76 30 20 10 19 44 -2 57 -6 4 -8 0 -4 -10
3 -10 2 -17 -2 -17 -5 0 -18 -3 -28 -7 -16 -6 -17 -5 -3 12 14 17 13 18 -2 13
-18 -7 -34 17 -17 27 5 4 7 11 3 16 -3 5 -10 7 -15 4 -5 -4 -9 -2 -9 3 0 6 7
12 15 16 8 3 15 10 15 16 0 6 -5 8 -11 5 -6 -4 -10 -1 -8 6 3 27 -1 39 -14 39
-7 0 -13 -11 -12 -27 0 -18 -6 -29 -17 -31 -10 -2 -18 2 -18 9 0 21 -41 58
-59 52 -11 -3 -12 -2 -4 4 9 7 5 18 -18 42 -16 19 -28 40 -25 47 3 8 -1 14
-10 14 -9 0 -12 -5 -8 -12 5 -7 3 -8 -6 -3 -7 4 -16 2 -21 -6 -4 -7 -11 -10
-15 -6 -4 3 -1 14 7 24 12 15 12 16 -1 8 -19 -12 -51 -14 -44 -3 3 4 13 8 22
8 12 0 13 3 4 12 -16 16 -15 31 2 25 10 -4 12 0 8 16 -5 19 -3 20 10 10 24
-20 28 -4 4 21 -20 21 -53 25 -40 5 3 -5 0 -9 -5 -9 -6 0 -11 5 -11 11 0 6 -9
9 -20 6 -11 -3 -20 -1 -20 4 0 5 7 9 15 9 18 0 19 11 3 29 -11 11 -10 12 1 6
11 -6 13 -2 7 18 -5 22 -3 25 10 20 10 -4 14 -14 11 -30z m1403 17 c0 -5 -4
-10 -9 -10 -6 0 -13 5 -16 10 -3 6 1 10 9 10 9 0 16 -4 16 -10z m-35 -19 c3
-5 1 -12 -5 -16 -12 -7 -6 -51 6 -48 5 1 18 5 29 9 l20 7 -20 -16 c-16 -13
-17 -16 -4 -17 9 0 16 -7 16 -15 0 -9 -7 -13 -16 -11 -9 3 -27 -1 -41 -9 -14
-8 -20 -14 -13 -15 13 0 32 -30 38 -60 2 -12 -4 -19 -21 -23 -13 -2 -24 0 -24
4 0 5 6 9 14 9 25 0 28 19 7 37 -11 9 -26 18 -33 19 -7 1 -20 3 -28 5 -10 3
-14 -3 -13 -18 3 -28 -13 -30 -20 -3 -4 16 -12 19 -39 16 -32 -4 -32 -3 -12
11 14 9 20 21 17 33 -4 16 -9 18 -27 9 -17 -9 -19 -9 -9 1 6 7 9 20 6 29 -4
12 -3 13 5 2 8 -11 13 -10 30 5 16 13 19 21 10 31 -8 10 -6 13 10 13 16 0 20
-5 17 -21 -4 -17 -2 -19 10 -9 13 10 15 8 15 -16 0 -26 1 -27 17 -12 15 16 15
18 -8 37 -20 18 -22 22 -9 31 19 12 67 13 75 1z m-777 -35 c-8 -15 -12 -16
-19 -5 -10 16 -12 8 -3 -15 3 -8 12 -12 19 -10 7 3 22 1 32 -4 16 -9 20 -30
14 -84 -1 -4 -13 -6 -28 -5 -19 1 -29 -3 -31 -16 -2 -10 0 -17 5 -16 4 1 10 0
13 -1 24 -9 40 -6 41 8 0 12 4 9 12 -8 14 -31 32 -50 46 -50 6 0 11 -7 11 -15
0 -8 5 -15 10 -15 6 0 10 -6 8 -14 -2 -8 0 -15 5 -15 4 -1 7 2 6 6 0 3 6 10
15 15 9 5 14 14 10 19 -3 5 0 16 6 24 7 8 10 15 6 15 -4 0 1 11 9 24 18 28 51
45 42 22 -3 -7 -1 -18 5 -24 8 -8 8 -15 0 -25 -9 -10 -9 -18 1 -30 13 -17 46
-27 46 -14 0 5 10 17 22 28 12 10 18 19 13 19 -11 0 17 20 29 20 4 0 7 -7 7
-15 0 -8 5 -15 11 -15 6 0 9 8 6 19 -3 14 0 17 14 14 11 -3 19 -13 20 -22 0
-11 2 -12 6 -3 3 7 -1 19 -7 27 -10 12 -9 16 6 21 24 9 54 39 54 55 0 8 4 8
15 -1 12 -10 18 -10 30 0 8 6 28 13 44 14 24 2 28 -2 27 -20 -1 -15 -6 -21
-19 -18 -11 2 -17 -2 -14 -9 3 -7 10 -11 17 -9 10 2 10 -1 -1 -14 -12 -16 -12
-17 3 -11 12 4 15 2 11 -9 -3 -7 0 -14 6 -14 6 0 11 5 11 10 0 6 4 10 9 10 5
0 8 -8 7 -17 0 -10 4 -17 10 -16 7 1 14 -7 17 -17 3 -11 1 -18 -3 -15 -5 3
-14 -4 -20 -15 -6 -11 -16 -19 -23 -17 -7 1 -10 -5 -8 -13 1 -8 3 -36 3 -63 0
-31 5 -50 15 -55 12 -7 10 -12 -11 -25 -24 -16 -26 -16 -40 4 -8 12 -19 19
-24 15 -5 -3 -18 4 -28 15 -10 11 -24 17 -31 14 -8 -2 -11 0 -8 5 3 6 4 10 1
10 -2 0 -12 3 -21 7 -14 5 -16 3 -8 -13 12 -22 6 -46 -14 -57 -12 -7 -11 -11
4 -23 15 -11 -15 -13 -219 -14 -130 0 -239 4 -242 8 -2 4 -1 14 3 21 7 10 13
10 29 2 26 -14 32 -14 32 -1 0 6 -3 9 -7 9 -33 -5 -46 24 -21 49 9 9 8 16 -4
29 -23 27 -29 85 -9 100 14 10 14 14 -6 32 -28 26 -31 26 -43 -1 -9 -21 -9
-20 -7 7 1 17 7 29 14 28 15 -3 30 17 35 47 2 19 -1 24 -14 22 -10 -2 -18 2
-18 8 0 5 4 10 9 10 5 0 8 21 7 48 -1 45 0 47 26 47 22 0 25 -3 16 -19z m-76
-148 c-9 -9 -12 -7 -12 12 0 19 3 21 12 12 9 -9 9 -15 0 -24z m-1982 -54 c9
-22 13 -24 25 -14 12 10 15 10 15 -3 0 -8 -6 -17 -12 -20 -10 -3 -10 -7 -1
-19 11 -12 10 -19 -6 -36 -22 -26 -41 -28 -41 -6 0 9 -9 18 -19 21 -11 3 -22
12 -25 20 -4 10 -2 13 8 10 17 -7 30 19 15 29 -6 4 -3 13 8 24 23 24 22 24 33
-6z m289 -85 c-12 -10 -29 -19 -38 -20 -9 0 8 -9 37 -20 38 -15 52 -26 52 -40
0 -10 6 -19 13 -19 8 0 7 -3 -3 -10 -12 -8 -12 -10 2 -15 16 -6 16 -9 2 -30
-11 -16 -12 -24 -3 -27 9 -3 9 -46 0 -178 -6 -96 -16 -267 -21 -379 -9 -187
-18 -239 -39 -227 -4 3 -12 1 -19 -3 -9 -5 -6 -15 13 -37 30 -35 30 -35 5 -62
l-21 -22 23 0 c13 0 29 -9 36 -21 10 -15 20 -19 36 -15 35 9 77 -36 72 -77 -2
-17 -8 -33 -15 -35 -8 -3 -8 -9 -1 -23 17 -30 31 -22 26 15 -2 19 -1 36 4 38
4 2 13 161 19 353 6 193 14 398 18 458 l6 107 82 0 82 0 23 -117 c33 -173 90
-417 100 -427 11 -11 43 95 105 347 l50 197 77 0 78 0 0 -40 c0 -22 -4 -40
-10 -40 -5 0 -10 -7 -10 -16 0 -9 5 -12 12 -8 8 5 10 -46 5 -207 -4 -118 -10
-314 -13 -437 -8 -258 -9 -261 -88 -269 l-49 -6 7 244 c3 134 3 259 -2 278 -7
33 -10 28 -46 -87 l-38 -122 -87 0 -88 0 -27 103 c-15 57 -31 109 -36 116 -10
17 -21 -113 -29 -344 -4 -107 -3 -183 3 -187 5 -3 15 -19 22 -35 7 -15 13 -22
13 -15 1 13 31 17 31 4 0 -5 12 -15 26 -22 23 -13 24 -15 7 -21 -16 -7 -15 -8
5 -8 28 -1 28 12 1 30 -20 14 -20 14 -1 37 11 12 27 22 36 22 19 0 21 11 4 28
-9 9 -8 15 8 27 27 20 31 19 46 -15 7 -17 16 -30 20 -30 4 0 5 -7 1 -15 -3
-10 0 -15 8 -13 10 2 13 -6 11 -29 -2 -27 2 -33 18 -33 11 0 20 -4 20 -10 0
-17 -35 -29 -78 -26 -23 2 -39 -1 -36 -5 3 -5 99 -9 214 -9 199 0 210 -1 220
-20 12 -23 40 -27 40 -6 0 8 14 16 33 19 17 3 455 6 971 6 822 1 942 3 963 16
12 9 22 19 22 23 -3 18 3 31 26 58 24 27 27 28 36 11 7 -13 14 -15 23 -8 15
12 41 -3 32 -18 -4 -6 -11 -9 -16 -6 -4 3 -10 -1 -13 -8 -4 -10 2 -13 20 -9
25 5 26 3 20 -31 -4 -29 -3 -35 9 -30 12 4 14 0 9 -19 -4 -16 -1 -29 9 -37 9
-8 16 -19 16 -26 0 -7 11 -28 24 -48 l24 -35 -34 -17 c-19 -9 -39 -13 -46 -9
-8 5 -9 1 -4 -12 6 -15 5 -17 -5 -6 -7 6 -21 12 -32 12 -10 0 -28 5 -40 12
-80 45 -138 48 -163 11 -9 -16 -66 -90 -126 -165 -60 -75 -107 -142 -106 -149
5 -22 -125 -90 -196 -102 -36 -6 -68 -8 -72 -4 -4 3 1 24 10 47 9 22 16 45 16
51 0 7 -84 9 -255 8 -238 -2 -296 -8 -226 -24 17 -3 31 -14 34 -26 6 -21 -9
-37 -15 -17 -3 8 -10 7 -27 -4 -26 -18 -10 -29 32 -21 21 4 27 1 27 -11 0 -10
4 -15 8 -12 4 2 14 1 22 -4 8 -5 22 -3 36 7 21 13 24 13 38 -9 8 -13 14 -35
12 -50 -2 -15 1 -25 5 -22 5 3 12 -2 15 -10 4 -11 11 -13 31 -5 32 12 46 12
38 -1 -4 -6 -11 -8 -16 -5 -5 4 -9 -1 -9 -9 0 -9 -4 -16 -10 -16 -5 0 -10 -7
-10 -15 0 -8 5 -15 10 -15 6 0 10 5 10 12 0 6 3 8 6 5 11 -10 -15 -34 -44 -42
-15 -4 -29 -10 -32 -14 -3 -5 -24 -20 -47 -35 -29 -17 -43 -33 -43 -47 0 -18
-3 -19 -15 -9 -8 6 -19 9 -24 5 -6 -3 -24 4 -40 16 l-30 22 -49 -21 c-57 -25
-97 -20 -82 9 9 15 8 17 -6 12 -12 -5 -15 -3 -9 6 10 17 -46 6 -96 -19 -97
-50 -132 -201 -67 -293 17 -24 18 -31 7 -39 -10 -7 -8 -8 9 -3 16 5 22 2 22
-9 0 -9 4 -15 9 -14 5 2 16 -6 24 -17 8 -11 26 -20 39 -20 17 0 28 -10 41 -37
32 -66 -3 -128 -81 -144 -42 -8 -92 12 -92 38 0 10 -4 16 -10 13 -14 -9 -25
45 -13 64 6 9 16 16 24 16 8 1 23 6 34 12 23 13 57 12 66 -1 4 -5 12 -7 19 -4
9 3 8 9 -5 22 -12 12 -20 14 -25 6 -4 -6 -14 -8 -23 -5 -8 4 -25 1 -37 -5 -12
-6 -25 -9 -28 -5 -9 9 29 36 40 28 6 -3 5 4 -1 16 -13 23 -26 27 -36 11 -9
-15 -53 18 -71 52 -9 17 -19 68 -24 116 -7 64 -14 91 -29 106 -20 19 -20 19 9
56 16 21 26 41 22 45 -4 4 4 4 17 0 18 -5 22 -4 16 6 -6 9 -4 10 8 6 55 -22
53 -22 38 -3 -8 10 -34 27 -57 38 -24 11 -53 30 -66 42 -13 12 -41 35 -63 51
-22 16 -75 62 -119 102 -43 40 -84 73 -91 73 -7 0 -18 -13 -25 -30 -7 -16 -16
-30 -20 -30 -4 0 -16 24 -27 53 l-20 52 -254 3 c-223 2 -255 4 -266 19 -12 15
-14 15 -31 0 -17 -15 -49 -17 -272 -17 -139 0 -255 2 -259 5 -8 9 21 25 33 18
5 -4 7 1 3 10 -4 11 11 44 43 93 28 42 50 81 50 86 0 4 -12 13 -26 18 -17 7
-24 15 -20 25 3 8 2 15 -2 15 -10 0 -32 51 -26 61 16 27 49 -5 38 -36 -4 -8
-1 -15 6 -15 6 0 8 5 5 10 -9 14 11 12 43 -4 25 -13 28 -12 44 9 17 22 17 23
-8 29 -14 4 -29 17 -34 29 -5 12 -9 16 -9 10 -1 -15 -38 -18 -43 -3 -1 5 -18
12 -36 14 -44 5 -48 10 -22 36 12 12 20 23 18 24 -2 1 -17 6 -34 12 -27 10
-31 9 -30 -5 0 -9 -5 -15 -11 -14 -7 2 -13 -2 -13 -8 0 -6 -7 -8 -16 -5 -12 5
-15 2 -10 -10 5 -12 2 -15 -9 -10 -27 10 -31 -25 -6 -46 13 -10 19 -18 13 -18
-6 0 -17 6 -24 13 -7 8 -18 12 -25 10 -6 -2 -14 1 -18 7 -3 6 -1 9 6 8 15 -4
20 50 7 76 -7 13 -13 15 -21 7 -7 -7 -7 -14 2 -24 9 -12 7 -16 -10 -20 -15 -4
-28 1 -40 16 -20 24 -25 47 -9 47 6 0 10 -4 10 -9 0 -5 9 -7 20 -4 12 3 20 14
20 27 0 12 7 31 15 43 13 19 13 22 -1 27 -23 9 -34 7 -34 -5 0 -12 -29 -38
-43 -39 -5 0 -5 6 -2 13 4 6 0 4 -8 -5 -8 -10 -20 -18 -27 -18 -7 0 -10 -8 -7
-20 3 -11 0 -18 -7 -17 -6 1 -10 -6 -10 -15 1 -10 -2 -18 -6 -18 -4 0 -10 -10
-13 -22 -6 -21 -7 -21 -25 -5 -17 15 -20 16 -25 3 -3 -8 0 -19 6 -24 16 -12
88 -3 85 12 -3 20 13 76 23 76 6 0 8 -4 4 -9 -3 -5 -1 -12 4 -15 5 -3 7 -15 4
-25 -3 -13 1 -20 14 -23 14 -3 11 -7 -14 -18 -36 -16 -44 -32 -15 -29 33 3 35
-1 8 -22 -18 -14 -26 -28 -23 -40 3 -12 0 -19 -10 -19 -8 0 -11 -5 -8 -10 4
-6 9 -8 13 -6 4 2 12 -2 19 -9 10 -10 9 -14 -3 -19 -8 -3 -13 -11 -12 -18 2
-7 -4 -12 -12 -11 -17 3 -25 -33 -9 -42 5 -4 9 -2 9 2 0 5 12 9 26 8 29 0 59
34 37 42 -7 3 -13 9 -13 14 0 5 11 2 25 -7 20 -13 25 -13 25 -3 0 11 2 11 9
-1 6 -8 7 -18 5 -22 -3 -4 2 -5 10 -2 9 3 16 1 16 -5 0 -6 -4 -11 -9 -11 -5 0
-4 -13 2 -30 6 -16 8 -32 5 -36 -8 -7 -48 5 -47 14 3 19 -2 25 -10 13 -8 -13
-15 -13 -50 -1 -22 7 -49 10 -60 7 -12 -3 -22 1 -25 9 -3 8 -12 14 -20 14 -9
0 -12 7 -9 20 6 24 -15 53 -34 46 -8 -3 -11 -1 -8 4 3 6 22 10 41 10 36 0 46
13 18 24 -15 6 -15 8 0 25 12 14 14 21 6 26 -8 5 -9 10 -1 18 7 7 4 14 -12 22
-24 13 -47 8 -26 -6 8 -5 9 -9 3 -9 -6 0 -9 -13 -6 -31 4 -24 0 -31 -16 -36
-12 -3 -22 -17 -27 -36 l-6 -32 -20 37 c-18 35 -53 68 -72 68 -4 0 -5 -5 -1
-12 4 -7 3 -8 -4 -4 -7 4 -12 19 -12 34 0 21 3 23 10 12 5 -8 12 -11 17 -7 4
5 -3 16 -16 26 -22 17 -22 19 -8 47 18 34 49 64 97 93 42 25 54 26 46 5 -5
-12 -2 -15 12 -12 11 3 26 1 35 -3 11 -7 18 -5 24 6 5 8 17 16 28 18 38 6 85
37 85 56 0 14 5 18 20 14 27 -7 27 23 1 37 -25 13 -44 13 -36 0 10 -16 -4 -12
-25 8 -17 16 -20 33 -21 105 -1 94 -9 112 -55 123 -58 15 -184 -22 -184 -53 0
-13 -9 -15 -45 -9 -25 3 -55 10 -65 16 -25 14 -51 63 -52 100 -1 34 -23 47
-37 22 -9 -15 -11 -14 -19 8 -6 15 -6 29 0 37 5 7 5 12 -2 15 -6 2 -8 11 -4
22 5 12 9 14 14 6 5 -7 16 -9 30 -5 12 4 19 9 16 12 -3 4 7 16 22 27 15 12 27
27 26 34 -1 6 -2 16 -3 20 0 4 -9 8 -19 9 -15 1 -18 -4 -15 -22 5 -24 -18 -48
-25 -26 -2 7 -15 16 -28 21 -13 5 -24 17 -24 25 0 48 85 153 114 142 9 -4 15
-1 13 6 -4 22 27 13 39 -11 8 -17 13 -20 17 -10 4 9 11 7 26 -11 12 -13 21
-20 21 -17 0 15 2 22 12 34 8 9 6 12 -6 12 -14 0 -15 4 -6 20 6 11 8 25 5 30
-3 6 0 10 7 11 7 0 4 4 -7 9 -11 5 -14 9 -7 9 6 1 12 7 12 15 0 7 7 19 15 26
17 14 20 50 4 50 -7 0 -9 12 -5 34 5 23 3 36 -6 39 -25 10 38 1 80 -11 23 -7
42 -19 42 -26 0 -15 57 -42 79 -38 7 2 23 -6 35 -17 19 -18 26 -19 49 -8 19 8
25 17 21 30 -4 13 0 17 21 17 17 0 24 4 19 11 -12 19 18 28 50 15 30 -12 106
-10 106 3 0 14 -16 29 -37 35 -24 8 -30 -3 -13 -20 7 -7 1 -9 -18 -8 -40 2
-39 2 -61 25 -11 12 -24 18 -30 15 -5 -4 -12 -2 -16 4 -3 5 2 10 12 10 13 0
14 3 5 8 -10 7 -6 20 14 57 20 35 28 65 30 113 2 35 10 77 18 92 10 22 11 27
1 24 -8 -3 -12 4 -12 21 0 17 2 22 7 15 4 -7 13 -9 19 -5 9 5 9 10 1 20 -8 9
-8 15 0 20 6 3 8 11 5 16 -4 5 -1 9 5 9 6 0 8 5 5 10 -3 6 3 10 14 10 12 0 20
6 19 13 -4 17 53 22 63 5 6 -10 9 -8 9 7 1 19 1 19 11 2 8 -14 6 -22 -12 -38z
m1368 15 c-3 -3 -12 -4 -19 -1 -8 3 -5 6 6 6 11 1 17 -2 13 -5z m1083 -9 c-7
-9 -15 -13 -17 -11 -7 7 7 26 19 26 6 0 6 -6 -2 -15z m-730 -5 c0 -5 -5 -10
-11 -10 -5 0 -7 5 -4 10 3 6 8 10 11 10 2 0 4 -4 4 -10z m730 -61 c0 -4 -11
-6 -25 -6 -25 0 -25 0 -9 18 14 15 19 17 26 7 4 -7 8 -16 8 -19z m-1024 -42
c10 4 12 0 8 -11 -8 -20 -9 -20 -28 0 -9 8 -13 21 -9 27 5 8 9 7 11 -5 2 -10
9 -15 18 -11z m1029 3 c3 -6 -1 -7 -9 -4 -18 7 -21 14 -7 14 6 0 13 -4 16 -10z
m-959 -25 c-11 -8 -22 -12 -25 -9 -6 6 19 24 34 24 6 -1 1 -7 -9 -15z m-1346
-5 c0 -5 -10 -10 -22 -9 -22 0 -22 1 -3 9 11 5 21 9 23 9 1 1 2 -3 2 -9z
m-624 -69 c8 -1 12 -44 5 -72 -1 -5 -47 -29 -56 -29 -16 0 0 20 28 34 30 16
13 17 -25 1 -20 -8 -26 19 -7 30 6 4 8 13 5 20 -6 17 1 24 22 20 9 -2 22 -4
28 -4z m159 -71 c-3 -5 -12 -10 -18 -10 -7 0 -6 4 3 10 19 12 23 12 15 0z m65
6 c0 -3 -4 -8 -10 -11 -5 -3 -10 -1 -10 4 0 6 5 11 10 11 6 0 10 -2 10 -4z
m-24 -30 c10 -21 8 -28 -9 -46 -15 -18 -21 -19 -28 -8 -8 12 -13 5 -10 -14 0
-4 -6 -5 -14 -2 -8 4 -15 10 -15 15 0 5 -5 9 -11 9 -5 0 -8 -4 -5 -8 3 -5 -1
-9 -9 -9 -13 0 -12 3 1 18 9 10 19 18 23 17 17 -2 31 3 31 11 0 5 -10 7 -22 5
-16 -3 -12 1 12 14 45 26 43 26 56 -2z m1514 -56 l0 -60 -81 0 c-123 0 -119 6
-119 -167 l0 -146 40 6 c22 3 58 3 80 0 l41 -6 -3 -56 -3 -56 -77 -3 -77 -3
-3 -142 c-2 -81 1 -153 7 -167 10 -24 15 -25 103 -28 l93 -3 -3 -62 -3 -62
-142 0 c-136 0 -142 1 -167 24 -14 13 -28 38 -31 55 -3 17 -2 226 2 464 l8
434 24 19 c20 17 40 19 167 19 l144 0 0 -60z m471 41 c20 -16 24 -30 27 -95
l4 -76 -61 0 c-54 0 -61 2 -61 19 0 32 -28 51 -75 51 -68 0 -75 -13 -75 -138
0 -59 4 -113 9 -121 5 -8 65 -41 133 -75 l123 -61 3 -253 2 -253 -175 3 c-221
4 -218 2 -223 143 l-4 95 66 0 65 0 3 -52 3 -53 58 -3 c85 -4 87 -2 87 147 l0
127 -121 59 c-66 33 -126 67 -133 75 -22 25 -26 85 -19 264 8 225 0 216 198
216 125 0 146 -2 166 -19z m414 -13 c23 -142 106 -965 98 -980 -2 -5 -30 -8
-62 -8 l-59 0 -6 63 c-3 34 -9 99 -12 145 l-7 82 -47 0 -47 0 -12 -137 c-8
-80 -18 -141 -24 -145 -16 -10 -79 -10 -95 1 -11 7 -9 56 12 282 23 238 48
469 72 672 l7 57 88 0 88 0 6 -32z m520 6 c15 -17 25 -39 25 -58 0 -17 9 -177
20 -356 11 -179 20 -369 20 -423 0 -89 -2 -100 -23 -121 -21 -21 -37 -24 -138
-31 -141 -8 -200 -1 -229 30 -18 20 -22 40 -30 171 -16 268 -31 715 -25 745 4
16 18 38 32 49 23 18 41 20 175 20 148 0 149 0 173 -26z m-3240 -334 c-3 -5
-10 -10 -16 -10 -5 0 -9 5 -9 10 0 6 7 10 16 10 8 0 12 -4 9 -10z m-445 -14
c0 -3 -4 -8 -10 -11 -5 -3 -10 -1 -10 4 0 6 5 11 10 11 6 0 10 -2 10 -4z m260
-211 c0 -14 -4 -25 -10 -25 -5 0 -10 11 -10 25 0 14 5 25 10 25 6 0 10 -11 10
-25z m410 -415 c8 -5 11 -12 8 -16 -10 -9 -38 3 -38 16 0 12 10 13 30 0z
m1051 -83 c-13 -13 -26 -3 -16 12 3 6 11 8 17 5 6 -4 6 -10 -1 -17z m-746
-207 c3 -5 1 -10 -4 -10 -6 0 -11 5 -11 10 0 6 2 10 4 10 3 0 8 -4 11 -10z
m-540 -40 c1 -34 -1 -38 -12 -27 -10 10 -11 20 -4 40 6 15 12 27 13 27 2 0 3
-18 3 -40z m3666 -63 c11 -9 14 -19 8 -34 -18 -49 -56 -36 -44 16 7 34 12 36
36 18z m-3956 -47 c3 -6 -4 -10 -17 -10 -18 0 -20 2 -8 10 19 12 18 12 25 0z
m365 -21 c0 -5 -4 -9 -10 -9 -5 0 -10 7 -10 16 0 8 5 12 10 9 6 -3 10 -10 10
-16z m-51 -70 c-15 -9 -32 -2 -24 11 3 5 13 6 21 3 12 -4 13 -8 3 -14z m1699
-295 c-12 -12 -17 -12 -33 0 -16 12 -18 17 -7 27 10 11 12 10 12 -1 0 -11 4
-10 18 3 16 16 17 17 20 1 2 -9 -2 -23 -10 -30z m992 5 c0 -20 -35 -26 -52
-10 -16 16 -15 17 17 18 19 1 35 -3 35 -8z m50 -3 c0 -3 -4 -8 -10 -11 -5 -3
-10 -1 -10 4 0 6 5 11 10 11 6 0 10 -2 10 -4z m-973 -22 c-3 -3 -12 -4 -19 -1
-8 3 -5 6 6 6 11 1 17 -2 13 -5z m13 -29 c0 -8 -2 -15 -4 -15 -2 0 -6 7 -10
15 -3 8 -1 15 4 15 6 0 10 -7 10 -15z m55 -28 c-5 -17 -12 -24 -21 -20 -17 6
-12 29 5 26 6 -2 11 5 11 14 0 9 2 14 5 11 4 -3 3 -17 0 -31z m-1075 -77 c-6
-11 -15 -20 -20 -20 -13 0 -12 8 3 25 18 21 29 18 17 -5z m923 -12 c-2 -5 1
-8 7 -8 6 0 8 -4 5 -10 -9 -14 8 -12 25 3 8 6 7 3 -3 -9 -10 -12 -15 -29 -12
-40 4 -12 1 -10 -10 6 -8 14 -15 18 -14 10 1 -8 -1 -23 -6 -33 -6 -14 -10 -16
-16 -6 -14 23 -19 4 -6 -24 6 -15 18 -27 26 -27 9 0 6 -7 -9 -20 -29 -25 -33
-25 -24 3 l7 22 -19 -20 c-11 -12 -15 -15 -11 -9 5 8 1 16 -10 22 -10 6 -15
14 -11 18 4 4 0 13 -10 20 -20 16 -82 19 -82 4 0 -5 4 -10 9 -10 17 0 19 -40
3 -50 -13 -8 -11 -9 11 -6 15 3 25 1 22 -4 -9 -15 -13 -70 -4 -64 5 3 9 15 10
27 l0 22 9 -22 c6 -15 15 -21 25 -17 8 3 15 1 15 -5 0 -10 -14 -15 -34 -12 -5
1 -4 -5 3 -13 10 -12 9 -16 -5 -24 -12 -7 -15 -15 -9 -28 6 -16 10 -13 24 19
9 21 20 35 24 31 4 -4 7 0 7 9 0 9 5 19 12 23 8 5 9 2 4 -12 -5 -10 -9 -24 -9
-31 0 -7 -4 -10 -9 -7 -4 3 -8 1 -8 -5 0 -6 8 -15 18 -20 16 -9 18 -6 16 24
-3 31 1 36 32 51 38 18 65 55 45 62 -6 2 -9 8 -6 12 3 5 17 5 31 0 14 -6 38
-10 53 -10 20 0 31 -7 39 -24 43 -96 6 -216 -88 -281 -64 -44 -145 -54 -133
-17 4 14 3 14 -5 3 -6 -8 -20 -12 -36 -9 -14 3 -26 1 -26 -3 0 -17 -44 -9 -86
16 -63 37 -94 105 -94 207 0 80 -13 121 -44 147 -21 18 -21 42 0 34 13 -5 15
-2 9 15 -5 19 -3 22 22 20 29 -2 55 -26 46 -43 -2 -5 3 -1 11 9 9 11 16 16 16
11 0 -5 5 -4 11 2 13 13 42 6 33 -8 -3 -5 0 -9 7 -9 6 0 9 8 7 18 -5 18 19 49
29 38 3 -3 11 2 18 11 14 19 39 8 31 -13 -5 -12 -2 -12 17 -2 12 7 28 11 35
10 6 -2 12 4 12 12 0 9 7 12 21 9 18 -5 20 -3 14 17 -6 20 -5 21 8 9 8 -8 13
-17 10 -21z m987 22 c0 -5 -5 -10 -11 -10 -5 0 -7 5 -4 10 3 6 8 10 11 10 2 0
4 -4 4 -10z m-1900 -39 c0 -5 -7 -12 -16 -15 -9 -4 -14 -9 -10 -13 3 -3 14 1
25 11 16 15 19 15 24 2 8 -20 0 -23 -48 -22 -28 1 -40 5 -40 16 0 10 8 14 23
12 12 -2 22 2 22 7 0 6 5 11 10 11 6 0 10 -4 10 -9z m993 -25 c-5 -10 -13 -12
-22 -7 -12 8 -12 11 0 24 17 19 35 5 22 -17z m-839 2 c-3 -4 -12 -8 -20 -8 -8
0 -13 4 -10 8 3 5 12 9 20 9 8 0 13 -4 10 -9z m-66 -26 c2 -7 -6 -12 -17 -12
-21 0 -27 11 -14 24 9 9 26 2 31 -12z m1021 -23 c-16 -10 -23 -4 -14 10 3 6
11 8 17 5 6 -4 5 -9 -3 -15z m-993 -4 c4 -8 10 -12 16 -9 5 3 22 8 39 11 26 4
29 1 30 -24 1 -15 1 -34 0 -40 -1 -7 4 -13 11 -13 7 0 3 -8 -9 -18 -13 -9 -26
-32 -29 -49 -6 -29 -4 -33 16 -33 19 0 22 4 18 30 -3 20 1 35 13 46 13 12 16
22 9 38 -7 20 -6 22 22 18 21 -3 29 -1 24 7 -4 6 -2 11 3 11 15 0 14 -13 -1
-29 -11 -11 -9 -13 9 -8 13 3 26 1 29 -4 3 -5 10 -7 15 -3 5 3 7 10 3 15 -3 5
0 17 7 25 10 12 9 13 -5 8 -9 -3 -16 -2 -16 4 0 16 24 20 37 6 9 -9 10 -15 2
-20 -7 -4 -9 -21 -6 -40 4 -26 2 -34 -9 -34 -14 0 -13 -2 0 -16 9 -8 20 -12
26 -9 5 3 10 -1 10 -9 0 -9 5 -16 10 -16 6 0 10 -4 10 -10 0 -5 -3 -9 -7 -8
-5 1 -18 -2 -31 -6 -16 -5 -22 -14 -19 -31 3 -25 17 -47 17 -27 0 7 5 12 10
12 24 0 -29 -52 -78 -76 -45 -23 -61 -26 -112 -21 -59 5 -131 37 -159 71 -7 8
-19 36 -26 61 -14 44 -13 45 5 35 18 -10 20 -7 20 18 0 16 -7 35 -15 42 -23
19 -19 39 8 35 21 -4 21 -4 3 10 -11 8 -14 15 -8 15 7 0 11 6 10 13 -2 6 3 11
10 10 6 -2 12 1 12 6 0 5 8 7 19 4 10 -3 22 0 25 6 10 16 26 14 32 -4z m179
-5 c3 -5 -1 -10 -10 -10 -9 0 -13 5 -10 10 3 6 8 10 10 10 2 0 7 -4 10 -10z
m1249 -45 c22 -145 216 -183 310 -61 30 40 38 43 29 8 -3 -13 -10 -19 -17 -15
-6 4 -5 -1 3 -10 12 -15 11 -17 -3 -17 -10 0 -14 -5 -11 -10 18 -29 -75 -81
-144 -82 -55 0 -94 17 -132 59 -39 41 -59 87 -59 133 0 54 16 51 24 -5z m163
13 c60 -31 75 -49 53 -63 -5 -3 -10 -1 -10 6 0 8 -5 6 -13 -5 -17 -23 -94 -19
-89 4 2 8 0 12 -4 8 -12 -13 -34 13 -34 42 0 50 14 52 97 8z m-887 -12 c0 -11
-19 -15 -25 -6 -3 5 1 10 9 10 9 0 16 -2 16 -4z m-810 -86 c0 -5 -2 -10 -4
-10 -3 0 -8 5 -11 10 -3 6 -1 10 4 10 6 0 11 -4 11 -10z m53 -300 c48 -38 43
-115 -9 -139 -75 -34 -141 8 -131 84 4 24 14 47 27 57 29 24 81 23 113 -2z
m361 4 c20 -8 21 -50 2 -57 -8 -3 -22 0 -31 7 -14 10 -15 16 -6 34 13 24 13
24 35 16z m1354 -25 c3 -28 -16 -43 -43 -33 -15 6 -21 45 -8 58 16 16 48 1 51
-25z m-743 -74 c0 -27 -3 -30 -30 -30 -21 0 -31 5 -33 18 -6 32 6 49 35 45 23
-2 27 -8 28 -33z m-1358 19 c-3 -3 -12 -4 -19 -1 -8 3 -5 6 6 6 11 1 17 -2 13
-5z"/>
<path d="M4480 4710 c0 -5 5 -10 11 -10 5 0 7 5 4 10 -3 6 -8 10 -11 10 -2 0
-4 -4 -4 -10z"/>
<path d="M4112 4678 c2 -6 10 -14 16 -16 7 -2 10 2 6 12 -7 18 -28 22 -22 4z"/>
<path d="M4173 4646 c4 -9 2 -16 -3 -16 -6 0 -10 -9 -10 -20 0 -23 13 -26 27
-7 14 18 10 50 -6 55 -10 3 -12 0 -8 -12z"/>
<path d="M4215 4650 c-8 -12 13 -52 24 -45 5 2 11 16 13 30 4 19 1 25 -13 25
-10 0 -21 -4 -24 -10z"/>
<path d="M4126 4635 c-16 -12 -17 -15 -4 -15 9 0 18 7 22 15 7 18 6 18 -18 0z"/>
<path d="M4180 4566 c0 -9 5 -16 10 -16 6 0 10 4 10 9 0 6 -4 13 -10 16 -5 3
-10 -1 -10 -9z"/>
<path d="M4266 4565 c4 -8 10 -12 15 -9 11 6 2 24 -11 24 -5 0 -7 -7 -4 -15z"/>
<path d="M4174 4525 c1 -8 6 -18 10 -22 4 -4 6 -1 4 7 -2 8 3 14 10 12 8 -1
11 2 7 8 -10 15 -34 12 -31 -5z"/>
<path d="M4201 4494 c0 -11 3 -14 6 -6 3 7 2 16 -1 19 -3 4 -6 -2 -5 -13z"/>
<path d="M3400 4520 c0 -5 5 -10 11 -10 5 0 7 5 4 10 -3 6 -8 10 -11 10 -2 0
-4 -4 -4 -10z"/>
<path d="M3324 4489 c-3 -6 -2 -14 3 -18 6 -3 13 -13 16 -21 3 -9 6 -4 6 12 1
29 -13 45 -25 27z"/>
<path d="M3565 4450 c-3 -5 -1 -10 4 -10 6 0 11 5 11 10 0 6 -2 10 -4 10 -3 0
-8 -4 -11 -10z"/>
<path d="M3564 4386 c2 -12 7 -21 12 -21 5 0 10 9 12 21 2 13 -3 21 -12 21
-10 0 -14 -8 -12 -21z"/>
<path d="M3610 4390 c0 -5 5 -10 11 -10 5 0 7 5 4 10 -3 6 -8 10 -11 10 -2 0
-4 -4 -4 -10z"/>
<path d="M3340 4360 c0 -5 5 -10 10 -10 6 0 10 5 10 10 0 6 -4 10 -10 10 -5 0
-10 -4 -10 -10z"/>
<path d="M3600 4330 c0 -11 5 -20 10 -20 6 0 10 9 10 20 0 11 -4 20 -10 20 -5
0 -10 -9 -10 -20z"/>
<path d="M3670 4310 c0 -5 5 -10 10 -10 6 0 10 5 10 10 0 6 -4 10 -10 10 -5 0
-10 -4 -10 -10z"/>
<path d="M3220 4270 c0 -5 5 -10 10 -10 6 0 10 5 10 10 0 6 -4 10 -10 10 -5 0
-10 -4 -10 -10z"/>
<path d="M3635 4260 c3 -5 11 -10 16 -10 6 0 7 5 4 10 -3 6 -11 10 -16 10 -6
0 -7 -4 -4 -10z"/>
<path d="M3325 4250 c3 -5 -2 -10 -11 -10 -14 0 -15 -3 -6 -12 10 -10 15 -10
22 2 13 20 12 30 -1 30 -5 0 -7 -4 -4 -10z"/>
<path d="M2930 4620 c0 -5 5 -10 10 -10 6 0 10 5 10 10 0 6 -4 10 -10 10 -5 0
-10 -4 -10 -10z"/>
<path d="M2975 4530 c3 -5 8 -10 11 -10 2 0 4 5 4 10 0 6 -5 10 -11 10 -5 0
-7 -4 -4 -10z"/>
<path d="M2850 4499 c0 -5 5 -7 10 -4 6 3 10 8 10 11 0 2 -4 4 -10 4 -5 0 -10
-5 -10 -11z"/>
<path d="M2996 4499 c3 -6 0 -15 -7 -20 -7 -4 -10 -11 -7 -14 4 -4 19 5 35 21
15 15 20 22 11 15 -12 -9 -18 -10 -18 -2 0 6 -5 11 -11 11 -5 0 -7 -5 -3 -11z"/>
<path d="M2870 4456 c0 -9 9 -14 20 -13 24 2 26 13 4 21 -22 8 -24 8 -24 -8z"/>
<path d="M3530 4209 c0 -5 5 -7 10 -4 6 3 10 8 10 11 0 2 -4 4 -10 4 -5 0 -10
-5 -10 -11z"/>
<path d="M1070 4031 c0 -5 7 -11 15 -15 9 -3 15 0 15 9 0 8 -7 15 -15 15 -8 0
-15 -4 -15 -9z"/>
<path d="M1110 4015 c0 -8 2 -15 4 -15 2 0 6 7 10 15 3 8 1 15 -4 15 -6 0 -10
-7 -10 -15z"/>
<path d="M2868 4043 c7 -3 16 -2 19 1 4 3 -2 6 -13 5 -11 0 -14 -3 -6 -6z"/>
<path d="M2815 4010 c-3 -6 1 -13 10 -16 19 -8 30 0 20 15 -8 14 -22 14 -30 1z"/>
<path d="M2922 3995 c-1 -8 -2 -27 -3 -41 -1 -19 -4 -22 -10 -13 -5 8 -9 23
-10 34 -1 16 -2 17 -6 3 -2 -10 -10 -15 -19 -11 -16 6 -20 -22 -4 -32 6 -4 9
-9 6 -13 -2 -4 6 -17 18 -30 l22 -22 1 21 c1 12 7 27 14 33 9 8 10 7 6 -6 -3
-10 -2 -20 3 -23 6 -4 10 0 10 7 0 7 3 24 7 37 5 20 3 23 -12 18 -14 -6 -17
-3 -13 18 3 14 2 27 -2 30 -4 2 -7 -2 -8 -10z"/>
<path d="M2980 3930 c0 -5 7 -7 15 -4 8 4 15 8 15 10 0 2 -7 4 -15 4 -8 0 -15
-4 -15 -10z"/>
<path d="M3006 3865 c4 -8 8 -15 10 -15 2 0 4 7 4 15 0 8 -4 15 -10 15 -5 0
-7 -7 -4 -15z"/>
<path d="M2985 3770 c-3 -5 -1 -10 4 -10 6 0 11 5 11 10 0 6 -2 10 -4 10 -3 0
-8 -4 -11 -10z"/>
<path d="M3130 3690 c0 -5 7 -7 15 -4 8 4 15 8 15 10 0 2 -7 4 -15 4 -8 0 -15
-4 -15 -10z"/>
<path d="M3930 4070 c0 -5 7 -10 15 -10 8 0 15 5 15 10 0 6 -7 10 -15 10 -8 0
-15 -4 -15 -10z"/>
<path d="M3800 4011 c0 -6 4 -12 8 -15 5 -3 9 1 9 9 0 8 -4 15 -9 15 -4 0 -8
-4 -8 -9z"/>
<path d="M3800 3950 c0 -19 3 -21 12 -12 9 9 9 15 0 24 -9 9 -12 7 -12 -12z"/>
<path d="M3725 3940 c-3 -5 -1 -10 4 -10 6 0 11 5 11 10 0 6 -2 10 -4 10 -3 0
-8 -4 -11 -10z"/>
<path d="M3760 3911 c0 -5 -12 -13 -27 -18 -15 -5 -23 -12 -18 -15 14 -8 69
28 56 36 -6 4 -11 3 -11 -3z"/>
<path d="M3800 3909 c0 -5 5 -7 10 -4 6 3 10 8 10 11 0 2 -4 4 -10 4 -5 0 -10
-5 -10 -11z"/>
<path d="M3860 3910 c-16 -10 -5 -29 15 -26 21 3 24 10 10 23 -6 6 -18 7 -25
3z"/>
<path d="M3670 3885 c0 -8 4 -15 10 -15 5 0 7 7 4 15 -4 8 -8 15 -10 15 -2 0
-4 -7 -4 -15z"/>
<path d="M3340 3871 c0 -6 5 -13 10 -16 6 -3 10 1 10 9 0 9 -4 16 -10 16 -5 0
-10 -4 -10 -9z"/>
<path d="M3290 3859 c0 -5 5 -7 10 -4 6 3 10 8 10 11 0 2 -4 4 -10 4 -5 0 -10
-5 -10 -11z"/>
<path d="M3660 3843 c0 -5 5 -15 10 -23 8 -12 10 -11 10 8 0 12 -4 22 -10 22
-5 0 -10 -3 -10 -7z"/>
<path d="M3790 3840 c0 -5 5 -10 10 -10 6 0 10 5 10 10 0 6 -4 10 -10 10 -5 0
-10 -4 -10 -10z"/>
<path d="M3440 3826 c0 -9 5 -16 10 -16 6 0 10 4 10 9 0 6 -4 13 -10 16 -5 3
-10 -1 -10 -9z"/>
<path d="M3704 3829 c-3 -6 -1 -16 5 -22 8 -8 11 -5 11 11 0 24 -5 28 -16 11z"/>
<path d="M3345 3800 c-3 -5 -1 -10 4 -10 6 0 11 5 11 10 0 6 -2 10 -4 10 -3 0
-8 -4 -11 -10z"/>
<path d="M3800 3790 c-26 -26 -25 -36 2 -43 27 -7 36 -1 20 15 -17 17 -15 28
3 22 9 -4 15 0 15 10 0 22 -16 20 -40 -4z"/>
<path d="M3555 3790 c3 -5 8 -10 11 -10 2 0 4 5 4 10 0 6 -5 10 -11 10 -5 0
-7 -4 -4 -10z"/>
<path d="M1450 3760 c0 -5 5 -10 10 -10 6 0 10 5 10 10 0 6 -4 10 -10 10 -5 0
-10 -4 -10 -10z"/>
<path d="M1500 3749 c0 -5 5 -7 10 -4 6 3 10 8 10 11 0 2 -4 4 -10 4 -5 0 -10
-5 -10 -11z"/>
<path d="M1410 3712 c0 -4 9 -8 19 -8 11 0 17 4 15 8 -3 4 -12 8 -20 8 -8 0
-14 -4 -14 -8z"/>
<path d="M1490 3695 c-10 -12 -9 -15 4 -15 10 0 14 5 11 10 -3 6 3 10 15 10
12 0 19 -4 16 -9 -5 -8 10 -8 34 -1 9 2 -34 19 -51 19 -9 1 -22 -6 -29 -14z"/>
<path d="M1393 3658 c0 -18 2 -25 4 -15 3 9 9 17 14 17 5 0 9 7 9 15 0 8 -6
15 -13 15 -9 0 -14 -12 -14 -32z"/>
<path d="M1435 3673 c3 -7 0 -21 -7 -32 -17 -28 3 -51 27 -31 20 16 19 23 -6
51 -11 13 -18 19 -14 12z"/>
<path d="M1385 3600 c-3 -5 -1 -10 4 -10 6 0 11 5 11 10 0 6 -2 10 -4 10 -3 0
-8 -4 -11 -10z"/>
<path d="M1452 3568 c6 -18 28 -21 28 -4 0 9 -7 16 -16 16 -9 0 -14 -5 -12
-12z"/>
<path d="M1375 3550 c3 -5 8 -10 11 -10 2 0 4 5 4 10 0 6 -5 10 -11 10 -5 0
-7 -4 -4 -10z"/>
<path d="M1530 3510 c0 -5 5 -10 11 -10 5 0 7 5 4 10 -3 6 -8 10 -11 10 -2 0
-4 -4 -4 -10z"/>
<path d="M1345 3460 c-3 -5 -1 -10 4 -10 6 0 11 5 11 10 0 6 -2 10 -4 10 -3 0
-8 -4 -11 -10z"/>
<path d="M1380 3430 c0 -5 7 -10 15 -10 8 0 15 5 15 10 0 6 -7 10 -15 10 -8 0
-15 -4 -15 -10z"/>
<path d="M1370 3399 c0 -5 5 -7 10 -4 6 3 10 8 10 11 0 2 -4 4 -10 4 -5 0 -10
-5 -10 -11z"/>
<path d="M1050 3340 c0 -13 18 -22 24 -11 3 5 -1 11 -9 15 -8 3 -15 1 -15 -4z"/>
<path d="M1500 3335 c0 -18 19 -40 26 -32 4 4 0 15 -9 24 -9 10 -17 13 -17 8z"/>
<path d="M1094 3305 c4 -35 16 -44 16 -12 0 14 -4 28 -9 32 -5 3 -8 -6 -7 -20z"/>
<path d="M1284 3289 c-9 -16 12 -33 31 -25 14 5 15 9 5 21 -15 18 -26 19 -36
4z"/>
<path d="M991 3256 c-16 -19 -8 -46 13 -46 20 0 29 31 13 47 -12 12 -16 12
-26 -1z"/>
<path d="M1725 3230 c-3 -5 -1 -10 4 -10 6 0 11 5 11 10 0 6 -2 10 -4 10 -3 0
-8 -4 -11 -10z"/>
<path d="M1030 3212 c0 -25 19 -42 39 -35 9 4 4 -6 -12 -22 l-27 -28 32 -23
c36 -27 38 -28 38 -15 0 5 -6 11 -14 13 -12 2 -12 9 -1 40 7 21 10 40 6 43 -3
4 -7 11 -7 16 -1 5 -2 14 -3 19 0 6 -12 10 -26 10 -17 0 -25 -5 -25 -18z"/>
<path d="M1516 3160 c-16 -5 -17 -8 -4 -12 16 -7 45 7 32 14 -5 3 -18 2 -28
-2z"/>
<path d="M926 3097 c3 -10 9 -15 12 -12 3 3 0 11 -7 18 -10 9 -11 8 -5 -6z"/>
<path d="M790 3055 c0 -9 -9 -19 -20 -22 -21 -6 -18 -23 4 -23 17 0 39 47 26
55 -6 4 -10 -1 -10 -10z"/>
<path d="M1083 3035 c0 -8 7 -15 15 -15 7 0 12 5 10 12 -6 18 -25 21 -25 3z"/>
<path d="M861 2994 c0 -11 3 -14 6 -6 3 7 2 16 -1 19 -3 4 -6 -2 -5 -13z"/>
<path d="M880 2980 c0 -5 9 -10 19 -10 11 0 23 5 26 10 4 6 -5 10 -19 10 -14
0 -26 -4 -26 -10z"/>
<path d="M890 2951 c0 -10 19 -25 25 -20 1 2 -3 10 -11 17 -8 7 -14 8 -14 3z"/>
<path d="M1265 2897 c-4 -10 -5 -21 -1 -24 10 -10 18 4 13 24 -4 17 -4 17 -12
0z"/>
<path d="M1405 2880 c4 -6 11 -8 16 -5 14 9 11 15 -7 15 -8 0 -12 -5 -9 -10z"/>
<path d="M1306 2865 c-10 -8 -16 -21 -13 -29 3 -8 1 -17 -6 -20 -8 -3 -8 -5
-1 -5 6 -1 19 8 29 19 10 11 15 20 10 20 -4 0 -2 7 5 15 16 19 1 19 -24 0z"/>
<path d="M1366 2865 c4 -8 7 -15 9 -15 2 0 5 7 9 15 3 9 0 15 -9 15 -9 0 -12
-6 -9 -15z"/>
<path d="M1353 2833 c-25 -5 -30 -18 -10 -26 9 -4 9 -6 -1 -6 -21 -1 -3 -21
20 -21 11 0 22 8 25 20 3 11 9 17 14 14 5 -3 9 -1 9 4 0 8 -28 25 -33 21 -1
-1 -12 -4 -24 -6z"/>
<path d="M1454 2758 c1 -23 7 -43 13 -45 13 -5 27 28 16 36 -5 3 -8 16 -7 29
1 12 -4 22 -11 22 -9 0 -12 -13 -11 -42z"/>
<path d="M1420 2709 c0 -5 5 -7 10 -4 6 3 10 8 10 11 0 2 -4 4 -10 4 -5 0 -10
-5 -10 -11z"/>
<path d="M1596 2681 c-4 -7 -5 -15 -2 -18 9 -9 19 4 14 18 -4 11 -6 11 -12 0z"/>
<path d="M1453 2672 c-19 -3 -21 -8 -16 -34 4 -20 1 -33 -8 -39 -11 -6 -8 -9
9 -9 21 0 26 -9 23 -37 -1 -7 5 -13 14 -13 8 0 15 5 15 11 0 5 4 8 9 5 5 -4
11 -1 13 6 3 8 12 7 34 -4 36 -17 37 -15 28 64 -5 44 -6 46 -25 30 -13 -11
-15 -18 -7 -23 6 -4 -1 -6 -15 -6 -15 1 -27 8 -27 15 0 6 -4 12 -9 12 -5 0
-11 6 -13 13 -2 6 -13 11 -25 9z m57 -86 c0 -3 -4 -8 -10 -11 -5 -3 -10 -1
-10 4 0 6 5 11 10 11 6 0 10 -2 10 -4z"/>
<path d="M1340 2650 c0 -5 5 -10 11 -10 5 0 7 5 4 10 -3 6 -8 10 -11 10 -2 0
-4 -4 -4 -10z"/>
<path d="M1595 2640 c3 -5 8 -10 11 -10 2 0 4 5 4 10 0 6 -5 10 -11 10 -5 0
-7 -4 -4 -10z"/>
<path d="M1412 2549 c-8 -12 -11 -24 -7 -27 3 -3 13 2 22 11 11 11 14 20 7 27
-6 6 -14 2 -22 -11z"/>
<path d="M1250 2549 c0 -5 5 -7 10 -4 6 3 10 8 10 11 0 2 -4 4 -10 4 -5 0 -10
-5 -10 -11z"/>
<path d="M1440 2519 c0 -5 5 -7 10 -4 6 3 10 8 10 11 0 2 -4 4 -10 4 -5 0 -10
-5 -10 -11z"/>
<path d="M1595 2490 c3 -5 8 -10 11 -10 2 0 4 5 4 10 0 6 -5 10 -11 10 -5 0
-7 -4 -4 -10z"/>
<path d="M1340 2441 c0 -6 4 -13 10 -16 6 -3 7 1 4 9 -7 18 -14 21 -14 7z"/>
<path d="M2020 2435 c0 -9 5 -15 11 -13 6 2 11 8 11 13 0 5 -5 11 -11 13 -6 2
-11 -4 -11 -13z"/>
<path d="M1836 2415 c-3 -8 -1 -15 4 -15 6 0 10 7 10 15 0 8 -2 15 -4 15 -2 0
-6 -7 -10 -15z"/>
<path d="M1553 2387 c3 -9 2 -17 -3 -19 -5 -2 -10 -10 -12 -18 -2 -8 -7 -18
-12 -21 -5 -4 5 -10 22 -14 17 -3 33 -13 36 -21 7 -18 26 -9 26 13 0 9 -6 13
-15 9 -19 -7 -36 24 -29 51 3 12 0 24 -7 29 -9 5 -11 2 -6 -9z"/>
<path d="M1340 2380 c-8 -5 -18 -6 -22 -4 -4 3 -5 -2 -2 -10 3 -9 11 -16 18
-16 20 0 35 15 28 27 -5 8 -13 9 -22 3z"/>
<path d="M1605 2370 c3 -5 8 -10 11 -10 2 0 4 5 4 10 0 6 -5 10 -11 10 -5 0
-7 -4 -4 -10z"/>
<path d="M1070 2330 c-12 -7 -10 -9 7 -7 12 0 19 5 17 9 -6 10 -6 10 -24 -2z"/>
<path d="M2730 2320 c-13 -8 -12 -10 3 -10 9 0 17 5 17 10 0 12 -1 12 -20 0z"/>
<path d="M980 2289 c0 -5 5 -7 10 -4 6 3 10 8 10 11 0 2 -4 4 -10 4 -5 0 -10
-5 -10 -11z"/>
<path d="M1510 2290 c0 -5 5 -10 11 -10 5 0 7 5 4 10 -3 6 -8 10 -11 10 -2 0
-4 -4 -4 -10z"/>
<path d="M1635 2270 c3 -5 8 -10 11 -10 2 0 4 5 4 10 0 6 -5 10 -11 10 -5 0
-7 -4 -4 -10z"/>
<path d="M3342 2231 c-11 -7 -52 -178 -52 -218 0 -7 11 -13 25 -13 16 0 25 6
25 15 0 9 9 15 25 15 16 0 25 -6 25 -15 0 -9 9 -15 25 -15 14 0 25 4 25 10 0
5 -12 59 -26 120 -26 112 -35 125 -72 101z m31 -108 c4 -33 2 -43 -9 -43 -15
0 -19 44 -8 75 8 21 10 18 17 -32z"/>
<path d="M3556 2224 c-20 -19 -23 -193 -4 -212 17 -17 103 -15 118 3 7 8 15
51 17 95 6 105 -7 130 -72 130 -26 0 -50 -6 -59 -16z m74 -104 c0 -63 -2 -70
-20 -70 -18 0 -20 7 -20 70 0 63 2 70 20 70 18 0 20 -7 20 -70z"/>
<path d="M1177 2224 c-8 -8 1 -24 13 -24 4 0 10 7 14 15 5 15 -14 21 -27 9z"/>
<path d="M2982 2218 c-17 -17 -15 -47 3 -44 8 1 21 8 27 14 16 16 37 15 44 -3
4 -8 17 -15 29 -15 20 0 22 3 16 28 -7 24 -12 27 -57 30 -30 2 -54 -2 -62 -10z"/>
<path d="M3158 2223 c0 -4 -2 -12 -3 -18 -2 -5 -3 -16 -4 -23 0 -7 -5 -10 -11
-7 -13 8 -13 -130 0 -155 8 -15 21 -19 70 -18 l60 1 0 63 0 64 -45 0 c-38 0
-45 -3 -45 -20 0 -13 7 -20 20 -20 13 0 20 -7 20 -20 0 -15 -7 -20 -25 -20
-26 0 -26 1 -23 72 2 60 6 73 21 76 10 2 17 -3 17 -12 0 -10 9 -16 26 -16 22
0 25 4 22 28 -3 25 -7 27 -50 30 -27 2 -49 -1 -50 -5z"/>
<path d="M3468 2134 c-6 -112 -2 -134 23 -134 16 0 18 11 21 105 3 121 3 125
-21 125 -16 0 -19 -13 -23 -96z"/>
<path d="M2893 2189 c1 -12 9 -19 23 -19 29 0 25 35 -4 36 -14 1 -20 -4 -19
-17z"/>
<path d="M1817 2183 c-19 -19 5 -23 133 -23 118 0 140 2 140 15 0 13 -21 15
-133 15 -74 0 -137 -3 -140 -7z"/>
<path d="M3850 2170 c0 -20 5 -20 122 -18 108 3 123 5 126 21 3 15 -8 17 -122
17 -120 0 -126 -1 -126 -20z"/>
<path d="M2971 2083 c-1 -62 15 -83 65 -83 61 0 74 13 74 75 l0 55 -40 0 c-33
0 -38 -3 -33 -17 4 -10 10 -20 14 -23 4 -3 9 -14 11 -25 2 -14 -3 -21 -18 -23
-17 -2 -23 4 -27 27 -4 18 -13 31 -21 31 -8 0 -17 8 -19 18 -3 9 -5 -6 -6 -35z"/>
<path d="M1832 2088 c7 -20 68 -23 68 -4 0 12 -10 16 -36 16 -24 0 -34 -4 -32
-12z"/>
<path d="M1913 2085 c0 -12 17 -15 94 -15 76 0 93 3 93 15 0 12 -17 15 -93 15
-77 0 -94 -3 -94 -15z"/>
<path d="M3850 2085 c0 -13 20 -15 126 -15 96 0 125 3 122 13 -3 8 -40 13
-126 15 -104 2 -122 0 -122 -13z"/>
<path d="M2835 1880 c-3 -5 -1 -10 4 -10 6 0 11 5 11 10 0 6 -2 10 -4 10 -3 0
-8 -4 -11 -10z"/>
<path d="M3163 1872 c-4 -8 1 -20 10 -27 14 -10 14 -15 2 -38 -15 -30 -10 -34
18 -13 12 10 15 16 7 21 -8 5 -8 11 1 21 15 18 37 18 73 -1 20 -11 32 -12 36
-5 4 6 14 8 23 4 10 -4 6 6 -11 24 -15 16 -29 25 -31 20 -2 -6 -7 -4 -12 3 -8
12 -11 12 -18 -1 -8 -12 -17 -12 -51 -3 -35 9 -42 8 -47 -5z"/>
<path d="M3081 1814 c0 -11 3 -14 6 -6 3 7 2 16 -1 19 -3 4 -6 -2 -5 -13z"/>
<path d="M3010 1804 c0 -8 5 -12 10 -9 6 4 8 11 5 16 -9 14 -15 11 -15 -7z"/>
<path d="M3123 1805 c-7 -8 -13 -19 -13 -24 0 -17 28 -1 33 20 6 22 -3 24 -20
4z"/>
<path d="M3425 1750 c-3 -5 -1 -10 4 -10 6 0 11 5 11 10 0 6 -2 10 -4 10 -3 0
-8 -4 -11 -10z"/>
<path d="M3060 1741 c0 -5 5 -13 10 -16 6 -3 10 -2 10 4 0 5 -4 13 -10 16 -5
3 -10 2 -10 -4z"/>
<path d="M3096 1735 c-3 -9 0 -26 8 -36 13 -19 14 -19 12 10 -2 36 -11 48 -20
26z"/>
<path d="M3180 1685 c0 -9 5 -15 11 -13 6 2 11 8 11 13 0 5 -5 11 -11 13 -6 2
-11 -4 -11 -13z"/>
<path d="M3423 1694 c-7 -3 -9 -12 -6 -20 3 -8 0 -14 -7 -14 -6 0 -8 -4 -5
-10 3 -5 0 -10 -7 -10 -10 0 -10 -2 1 -9 7 -5 11 -14 7 -19 -4 -6 0 -26 8 -44
10 -22 15 -27 15 -14 1 13 6 17 21 13 15 -4 20 0 20 15 0 10 4 17 9 14 15 -10
21 24 8 47 -16 30 -39 57 -46 56 -3 0 -11 -3 -18 -5z"/>
<path d="M3076 1669 c-11 -36 -13 -59 -5 -53 13 7 11 -10 -2 -23 -8 -8 -7 -13
2 -18 7 -5 10 -4 5 3 -3 6 3 17 15 26 21 15 18 42 -4 29 -7 -4 -6 1 2 11 11
12 11 20 3 28 -8 8 -12 8 -16 -3z"/>
<path d="M2975 1620 c3 -5 8 -10 11 -10 2 0 4 5 4 10 0 6 -5 10 -11 10 -5 0
-7 -4 -4 -10z"/>
<path d="M3216 1623 c-3 -3 -3 -10 0 -14 7 -12 34 -11 34 0 0 11 -26 22 -34
14z"/>
<path d="M2940 1610 c0 -5 5 -10 11 -10 5 0 7 5 4 10 -3 6 -8 10 -11 10 -2 0
-4 -4 -4 -10z"/>
<path d="M3010 1596 c0 -9 5 -16 10 -16 6 0 10 4 10 9 0 6 -4 13 -10 16 -5 3
-10 -1 -10 -9z"/>
<path d="M3216 1572 c-3 -5 6 -12 20 -15 15 -3 23 0 21 7 -5 14 -33 20 -41 8z"/>
<path d="M3386 1565 c4 -8 8 -15 10 -15 2 0 4 7 4 15 0 8 -4 15 -10 15 -5 0
-7 -7 -4 -15z"/>
<path d="M3035 1500 c-3 -5 -1 -10 4 -10 6 0 11 5 11 10 0 6 -2 10 -4 10 -3 0
-8 -4 -11 -10z"/>
<path d="M3000 1475 c0 -8 7 -15 16 -15 14 0 14 3 4 15 -7 8 -14 15 -16 15 -2
0 -4 -7 -4 -15z"/>
<path d="M2970 1469 c0 -5 5 -7 10 -4 6 3 10 8 10 11 0 2 -4 4 -10 4 -5 0 -10
-5 -10 -11z"/>
<path d="M2962 1266 c7 -8 15 -12 17 -11 5 6 -10 25 -20 25 -5 0 -4 -6 3 -14z"/>
<path d="M3072 1068 c2 -6 10 -14 16 -16 7 -2 10 2 6 12 -7 18 -28 22 -22 4z"/>
<path d="M3100 1071 c0 -6 5 -13 10 -16 6 -3 10 1 10 9 0 9 -4 16 -10 16 -5 0
-10 -4 -10 -9z"/>
<path d="M3550 3250 c0 -8 -7 -73 -15 -145 -8 -71 -15 -136 -15 -142 0 -8 14
-13 36 -13 l37 0 -6 53 c-3 28 -9 93 -13 142 -4 50 -10 97 -15 105 -7 13 -8
13 -9 0z"/>
<path d="M3914 3409 c-7 -12 33 -736 42 -750 3 -5 34 -9 70 -9 l64 0 0 58 c0
87 -20 579 -26 647 l-5 60 -70 1 c-38 1 -72 -3 -75 -7z"/>
<path d="M2270 1440 c0 -5 5 -10 11 -10 5 0 7 5 4 10 -3 6 -8 10 -11 10 -2 0
-4 -4 -4 -10z"/>
<path d="M2340 1433 c0 -11 33 -43 43 -43 4 0 7 9 7 20 0 11 -4 20 -9 20 -5 0
-16 3 -25 6 -9 3 -16 2 -16 -3z"/>
<path d="M2415 1420 c3 -5 10 -10 16 -10 5 0 9 5 9 10 0 6 -7 10 -16 10 -8 0
-12 -4 -9 -10z"/>
<path d="M2340 1348 c0 -16 4 -28 9 -28 18 0 20 17 6 36 -14 18 -14 18 -15 -8z"/>
<path d="M2645 1269 c6 -29 14 -36 24 -20 5 7 11 12 15 12 18 -3 18 0 0 14
-28 21 -44 18 -39 -6z"/>
<path d="M2330 1210 c0 -16 4 -30 10 -30 5 0 7 7 4 15 -4 8 -1 15 5 15 6 0 11
7 11 15 0 8 -7 15 -15 15 -10 0 -15 -10 -15 -30z"/>
<path d="M2605 1220 c3 -5 11 -10 16 -10 6 0 7 5 4 10 -3 6 -11 10 -16 10 -6
0 -7 -4 -4 -10z"/>
<path d="M2565 1190 c3 -5 10 -10 16 -10 5 0 9 5 9 10 0 6 -7 10 -16 10 -8 0
-12 -4 -9 -10z"/>
<path d="M2710 1180 c0 -5 5 -10 11 -10 5 0 7 5 4 10 -3 6 -8 10 -11 10 -2 0
-4 -4 -4 -10z"/>
<path d="M2510 1160 c-1 -3 -3 -19 -5 -37 -2 -29 -1 -30 12 -17 12 12 13 20 5
37 -6 12 -11 20 -12 17z"/>
<path d="M1954 1352 c-1 -26 0 -41 3 -35 3 9 11 8 29 -3 22 -15 24 -15 24 0 0
9 5 16 10 16 6 0 10 7 10 16 0 8 -4 12 -10 9 -5 -3 -10 2 -10 12 0 15 -2 16
-10 3 -6 -9 -10 -10 -10 -3 0 7 -8 17 -18 22 -15 8 -17 4 -18 -37z"/>
<path d="M1866 1363 c-6 -14 -5 -15 5 -6 7 7 10 15 7 18 -3 3 -9 -2 -12 -12z"/>
<path d="M1720 1260 c0 -5 5 -10 11 -10 5 0 7 5 4 10 -3 6 -8 10 -11 10 -2 0
-4 -4 -4 -10z"/>
<path d="M1760 1199 c0 -11 27 -12 34 -1 2 4 -4 9 -15 9 -10 1 -19 -2 -19 -8z"/>
<path d="M3370 1395 c0 -8 7 -15 15 -15 8 0 15 7 15 15 0 8 -7 15 -15 15 -8 0
-15 -7 -15 -15z"/>
<path d="M1740 1000 c0 -11 5 -20 10 -20 6 0 10 9 10 20 0 11 -4 20 -10 20 -5
0 -10 -9 -10 -20z"/>
<path d="M1670 920 c-20 -12 -5 -24 16 -12 9 5 12 12 7 15 -5 3 -15 2 -23 -3z"/>
<path d="M1728 913 c7 -3 16 -2 19 1 4 3 -2 6 -13 5 -11 0 -14 -3 -6 -6z"/>
<path d="M1700 892 c0 -5 7 -9 15 -9 8 0 15 4 15 9 0 4 -7 8 -15 8 -8 0 -15
-4 -15 -8z"/>
</g>
</svg>
