<?xml version="1.0" standalone="no"?>
<!DOCTYPE svg PUBLIC "-//W3C//DTD SVG 20010904//EN"
 "http://www.w3.org/TR/2001/REC-SVG-20010904/DTD/svg10.dtd">
<svg version="1.0" xmlns="http://www.w3.org/2000/svg"
 width="630.000000pt" height="630.000000pt" viewBox="0 0 630.000000 630.000000"
 preserveAspectRatio="xMidYMid meet">

<g transform="translate(0.000000,630.000000) scale(0.100000,-0.100000)"
fill="#000000" stroke="none">
<path d="M3478 4879 c-21 -12 -23 -37 -5 -59 18 -22 37 -23 58 -4 24 22 24 29
-1 54 -23 23 -28 24 -52 9z"/>
<path d="M4231 4733 c-23 -16 -28 -52 -9 -71 19 -19 66 -15 78 7 24 46 -27 94
-69 64z"/>
<path d="M3924 4670 c-35 -14 -64 -59 -64 -99 0 -50 -25 -83 -58 -79 -24 3
-27 7 -24 35 2 25 -2 35 -23 49 -25 16 -27 16 -53 -3 -15 -11 -29 -33 -32 -49
-6 -35 -48 -94 -68 -94 -21 0 -72 33 -72 46 0 17 -22 23 -40 11 -11 -6 -28 -4
-53 6 -36 15 -38 15 -60 -7 -13 -13 -21 -28 -19 -34 2 -7 -7 -12 -23 -12 -23
0 -26 2 -15 15 10 12 10 15 -2 15 -21 0 -59 -30 -52 -41 3 -5 1 -15 -4 -22 -6
-7 -13 -30 -17 -52 -4 -22 -12 -48 -17 -57 -11 -23 3 -23 44 -2 l31 16 -7 -26
c-7 -30 1 -34 19 -9 8 10 19 14 30 10 13 -6 15 -10 6 -21 -9 -11 -6 -12 13 -9
18 4 29 15 36 39 10 31 14 33 33 22 22 -11 22 -11 3 11 -23 25 -16 27 26 5 29
-15 30 -18 14 -29 -13 -10 -14 -14 -4 -18 9 -4 1 -17 -24 -40 -21 -19 -38 -38
-38 -44 0 -5 13 -19 29 -30 l28 -21 38 45 38 45 23 -26 c13 -14 24 -29 24 -33
0 -4 -16 -25 -36 -46 -34 -35 -36 -40 -24 -63 17 -30 25 -30 66 1 33 26 49 21
37 -11 -5 -13 -3 -16 10 -11 36 14 24 -13 -18 -40 -31 -19 -43 -33 -39 -43 3
-8 10 -34 17 -58 8 -30 16 -41 27 -38 8 2 31 7 51 10 36 6 37 6 41 -29 4 -38
1 -40 -62 -47 -22 -3 -25 -9 -28 -45 l-3 -43 45 0 c49 0 53 -7 40 -58 -5 -19
-12 -22 -30 -18 -13 3 -35 9 -49 12 -17 4 -25 2 -25 -7 0 -8 -14 -43 -30 -78
l-31 -64 41 -39 c36 -35 39 -41 25 -54 -17 -18 -43 -7 -72 30 l-19 23 -39 -38
c-21 -21 -41 -36 -44 -33 -3 3 -7 46 -7 96 -2 77 -5 94 -23 111 -18 19 -25 20
-52 10 -18 -7 -37 -10 -42 -6 -6 4 -8 0 -4 -10 18 -49 -134 -110 -228 -93 -34
7 -36 9 -33 39 3 30 5 32 41 29 58 -5 132 24 167 66 44 53 66 133 50 186 -21
72 -102 136 -172 136 -38 0 -105 -17 -112 -29 -10 -16 7 -52 23 -49 15 3 95
-52 113 -77 13 -18 9 -70 -8 -93 -24 -34 -58 -28 -109 22 -36 34 -45 50 -45
77 0 19 -9 45 -20 59 l-19 25 -15 -37 c-23 -53 -20 -140 4 -188 20 -38 17 -46
-12 -41 -5 0 -8 -4 -8 -11 0 -6 -10 -2 -23 10 -28 27 -58 28 -80 4 -19 -21
-23 -72 -6 -89 7 -7 2 -15 -15 -27 -15 -9 -26 -12 -26 -7 0 5 5 11 12 13 14 5
2 28 -15 28 -8 0 -8 -3 2 -9 9 -6 10 -11 2 -15 -6 -4 -11 -4 -11 0 0 4 -9 -1
-20 -11 -16 -14 -22 -15 -34 -5 -9 6 -18 20 -21 31 -9 26 -35 24 -75 -6 -19
-14 -37 -25 -40 -25 -4 0 -11 16 -17 35 l-11 34 52 20 c48 18 51 21 48 53 -4
56 -8 60 -51 53 -25 -4 -46 -2 -60 7 -22 13 -29 48 -10 48 6 0 8 -7 5 -16 -3
-8 -2 -12 4 -9 6 3 10 13 10 21 0 10 12 14 45 14 l45 0 0 44 0 45 -46 7 c-25
3 -48 13 -51 20 -8 21 -21 17 -29 -8 -3 -12 -13 -28 -21 -36 -12 -12 -13 -11
-7 13 6 24 4 27 -10 22 -9 -4 -16 -1 -16 5 0 7 -7 3 -16 -8 -8 -10 -13 -13 -9
-6 7 13 -1 17 -53 26 -31 5 -32 4 -29 -21 5 -38 -20 -62 -63 -61 -19 1 -36 -4
-38 -10 -2 -7 -8 -9 -14 -6 -15 10 1 -36 25 -67 11 -15 25 -25 32 -23 8 3 18
-9 25 -31 7 -20 18 -39 25 -42 35 -13 -28 -59 -97 -71 l-43 -8 0 -59 c0 -33
-4 -67 -10 -75 -5 -8 -10 -21 -11 -27 -1 -7 -9 -20 -18 -29 -26 -26 -14 -74
26 -102 43 -31 8 -118 -54 -131 -44 -9 -57 -34 -33 -61 11 -12 19 -24 18 -27
-7 -25 -72 -23 -125 4 -96 48 -148 137 -148 253 0 94 28 160 91 213 53 46 106
61 184 53 l60 -5 -38 20 c-37 20 -77 70 -77 98 0 8 -18 29 -39 48 -46 39 -66
89 -58 146 3 23 3 36 -1 31 -4 -5 -23 -11 -42 -12 -25 -2 -31 1 -20 7 8 6 12
12 9 15 -2 3 -11 1 -19 -4 -13 -8 -13 -13 -2 -30 12 -20 11 -20 -8 -10 -19 10
-20 8 -20 -31 0 -34 -6 -47 -35 -76 -33 -33 -38 -35 -87 -31 -63 7 -98 40 -98
94 0 23 -4 33 -11 28 -6 -3 -3 6 6 20 10 15 13 26 7 24 -6 -2 -18 6 -26 17
-14 17 -17 18 -26 5 -8 -12 -10 -12 -10 -1 0 11 -3 11 -15 1 -13 -11 -14 -10
-9 4 3 9 1 16 -5 16 -6 0 -11 7 -11 16 0 8 -5 12 -10 9 -6 -4 -23 7 -39 24
-16 17 -32 27 -36 23 -4 -4 -4 4 -1 18 7 23 6 24 -8 7 -9 -12 -16 -14 -21 -8
-3 6 -3 11 1 11 3 0 0 7 -7 17 -8 9 -13 24 -11 33 1 9 -8 22 -23 30 -13 7 -27
21 -31 32 -3 10 -13 18 -22 18 -10 0 -13 -3 -6 -8 6 -4 13 -15 17 -24 4 -12 2
-15 -9 -11 -7 3 -14 0 -14 -6 0 -6 -7 -11 -16 -11 -14 0 -14 3 -4 15 7 8 8 15
2 15 -12 0 -34 -25 -27 -31 2 -3 -9 -20 -25 -38 -15 -19 -34 -54 -40 -78 -7
-23 -16 -43 -21 -43 -4 0 -10 -12 -14 -27 -7 -32 -38 -73 -55 -73 -6 0 -9 -4
-5 -9 3 -5 -2 -16 -10 -24 -8 -9 -15 -21 -15 -28 0 -8 -3 -9 -14 0 -11 9 -12
7 -9 -13 3 -13 0 -27 -6 -30 -17 -11 -13 -24 6 -22 35 2 20 -31 -42 -97 -10
-12 -20 -28 -20 -37 -1 -8 -3 -251 -6 -540 l-3 -525 -7 475 c-7 479 -8 510
-19 510 -8 0 -26 -36 -35 -67 -4 -13 -11 -23 -16 -23 -5 0 -9 -12 -9 -27 0
-16 -2 -75 -6 -132 -5 -82 -3 -105 7 -112 10 -6 11 -9 2 -9 -10 0 -13 -159
-12 -737 1 -406 4 -785 8 -843 7 -97 8 -90 10 100 2 113 2 233 2 268 -1 38 2
61 8 58 5 -4 8 -18 5 -31 -2 -14 0 -25 4 -25 5 0 8 -12 6 -27 -1 -15 2 -36 9
-47 6 -12 10 -24 9 -28 -1 -4 4 -5 12 -2 8 3 17 0 21 -6 4 -7 18 7 35 33 15
25 37 51 49 59 11 8 19 17 17 19 -3 2 9 4 24 4 21 1 26 -2 20 -11 -6 -6 -6
-14 -2 -19 4 -4 -2 -5 -14 -1 -15 4 -21 2 -21 -9 0 -8 6 -15 13 -15 8 0 11 -6
7 -17 -4 -11 -3 -14 5 -9 7 4 12 1 12 -9 0 -11 5 -15 15 -12 11 5 12 1 5 -18
-7 -18 -6 -24 2 -22 7 1 13 -7 15 -18 1 -11 0 -14 -3 -7 -3 6 -9 12 -14 12
-15 0 -20 -33 -8 -49 11 -14 11 -14 -4 -3 -10 8 -19 9 -22 3 -3 -5 0 -12 6
-14 10 -4 10 -6 1 -6 -7 -1 -13 -6 -13 -12 0 -5 5 -7 11 -3 7 4 10 1 7 -7 -3
-8 -11 -13 -18 -11 -10 2 -11 0 -2 -11 7 -8 10 -16 7 -19 -3 -3 2 -11 12 -19
11 -9 14 -10 9 -2 -5 9 -2 11 8 7 8 -3 12 -13 9 -22 -4 -14 -3 -15 5 -2 6 8 8
18 6 22 -3 4 2 8 10 8 9 0 16 -9 16 -20 0 -22 15 -27 24 -7 3 6 3 1 -1 -13 -5
-22 -4 -23 10 -12 12 11 15 10 13 -5 0 -11 5 -18 16 -17 10 1 17 -1 16 -5 0
-3 1 -8 2 -11 1 -3 3 -15 4 -28 2 -20 1 -21 -14 -7 -15 13 -17 13 -17 0 0 -8
4 -15 8 -15 4 0 2 -12 -6 -27 -15 -29 -12 -43 11 -43 12 0 12 -4 4 -20 -6 -11
-16 -20 -22 -20 -6 0 -5 6 3 17 8 9 10 14 4 11 -21 -12 -38 25 -22 48 4 7 0
15 -9 18 -10 4 -13 2 -8 -7 6 -9 5 -9 -8 0 -17 15 -29 7 -21 -13 4 -10 0 -12
-12 -8 -13 5 -16 3 -13 -7 3 -8 15 -13 28 -11 21 3 22 2 12 -11 -8 -10 -9 -17
-3 -21 6 -4 8 -13 4 -21 -3 -8 0 -15 5 -15 6 0 13 8 15 17 4 15 5 14 6 -2 0
-12 6 -26 12 -32 15 -15 3 -47 -16 -40 -9 4 -12 1 -9 -8 3 -7 15 -12 26 -10
17 4 18 2 6 -12 -11 -14 -11 -16 4 -11 17 7 30 -11 33 -45 3 -20 -11 -23 -18
-4 -4 9 -6 9 -6 -1 -1 -7 11 -17 27 -23 l27 -11 -23 -18 c-29 -24 -28 -34 2
-26 14 3 28 2 31 -4 4 -6 -5 -10 -20 -10 -15 0 -24 -4 -20 -10 4 -6 10 -8 14
-6 12 8 6 -33 -7 -46 -17 -17 -15 -38 3 -38 12 0 15 -11 13 -50 -1 -27 -7 -50
-13 -50 -5 0 -4 -4 3 -9 11 -6 10 -10 -5 -15 -17 -7 -17 -8 0 -18 18 -9 18
-10 0 -24 -17 -13 -17 -13 5 -14 13 0 21 -4 18 -9 -3 -5 -15 -7 -26 -4 -11 3
-20 0 -20 -6 0 -6 7 -11 15 -11 17 0 19 -18 6 -39 -14 -22 18 -44 39 -28 13
10 13 10 1 -5 -7 -10 -17 -15 -22 -12 -5 3 -9 0 -9 -7 0 -6 8 -9 20 -6 17 4
18 2 9 -14 -11 -21 -24 -27 -14 -7 4 7 0 4 -9 -6 -17 -21 -13 -36 9 -36 7 0
16 -6 18 -12 3 -8 6 -7 6 4 1 9 5 19 10 22 5 4 8 -5 6 -19 -1 -17 1 -23 9 -18
7 5 4 1 -5 -8 -16 -14 -16 -16 0 -27 13 -9 14 -11 1 -11 -11 -1 -15 -13 -14
-48 1 -58 -4 -75 -20 -66 -6 4 6 -10 26 -31 37 -37 58 -40 58 -10 0 8 -4 13
-9 9 -5 -3 -13 0 -17 7 -4 7 -4 10 1 6 4 -4 14 -3 22 4 11 9 13 8 11 -3 -3
-16 48 -14 69 2 8 8 12 -33 14 -168 1 -98 3 -202 3 -230 1 -29 4 -53 7 -53 7
0 18 209 20 385 l2 130 8 -90 c4 -49 9 -117 10 -150 3 -84 17 -42 28 84 l8 96
3 -125 c2 -69 4 -129 5 -135 2 -5 3 -54 4 -107 1 -58 5 -98 11 -98 6 0 10 38
10 93 0 63 3 87 10 77 5 -8 10 -39 10 -67 0 -36 4 -53 13 -53 7 0 8 -3 2 -8
-5 -4 -11 -15 -13 -25 -3 -16 83 -17 1731 -17 954 0 1737 3 1740 7 4 3 -1 15
-10 25 -14 16 -15 21 -4 27 11 7 11 9 0 14 -10 4 -8 10 10 22 l23 18 -26 24
c-26 23 -35 40 -17 28 5 -3 12 -1 15 4 4 5 2 12 -4 16 -5 3 -10 16 -10 28 0
15 -3 18 -9 9 -5 -8 -7 0 -7 22 1 20 4 36 8 36 5 0 8 7 8 16 0 8 -4 12 -10 9
-5 -3 -10 -1 -10 4 0 6 3 11 8 11 9 0 7 57 -3 81 -3 10 -1 20 5 24 9 6 9 9 0
15 -8 5 -9 13 -4 21 5 8 10 23 11 34 3 16 1 17 -7 5 -8 -13 -10 -12 -10 3 0 9
4 17 10 17 5 0 7 6 5 13 -11 32 -13 107 -3 101 7 -4 8 -2 4 4 -13 21 -16 53
-4 46 7 -5 9 -1 5 9 -4 10 -2 17 5 17 7 0 7 4 -1 14 -6 7 -11 27 -9 43 1 16
-1 34 -6 41 -4 7 -4 12 1 12 4 0 8 11 8 24 0 13 -4 22 -8 19 -9 -6 -3 49 8 66
3 6 1 11 -5 11 -6 0 -4 7 5 16 13 13 14 19 4 25 -18 11 -19 136 -2 172 9 17
10 27 3 27 -8 0 -8 6 0 20 6 11 8 20 5 20 -3 0 2 11 11 25 16 24 16 25 -1 18
-14 -5 -16 -3 -10 7 17 27 15 60 -3 60 -12 0 -13 3 -5 8 16 10 8 51 -13 67
-13 9 -14 14 -4 20 9 5 11 4 6 -3 -4 -7 -2 -12 3 -12 14 0 14 17 1 25 -13 8
-13 45 -1 45 5 0 5 13 -2 29 -5 15 -7 36 -4 45 8 20 5 32 -6 28 -5 -1 -5 8 -1
20 17 55 17 54 6 39 -7 -10 -10 15 -9 80 0 56 5 97 11 101 7 5 7 8 -2 8 -10 0
-10 5 -2 20 7 14 7 20 0 20 -33 0 37 182 76 197 8 3 12 9 9 13 -6 9 30 67 58
94 12 13 17 13 24 4 8 -13 9 -31 13 -258 l3 -135 9 120 c7 100 4 2226 -4 2290
-2 18 -9 21 -44 21 -23 -1 -40 -4 -38 -7 5 -9 -18 -17 -34 -12 -6 3 -9 9 -6
15 4 5 -4 4 -17 -2 -13 -7 -27 -19 -32 -26 -4 -7 -18 -11 -32 -8 -18 3 -34 -6
-67 -39 -24 -23 -43 -47 -44 -52 -3 -29 -18 -54 -35 -58 -13 -4 -17 -10 -13
-22 6 -14 3 -16 -15 -10 -20 6 -21 4 -18 -32 2 -23 -2 -45 -11 -55 -12 -14
-12 -20 -2 -33 10 -12 10 -15 -4 -15 -19 0 -22 -30 -3 -30 8 -1 7 -4 -3 -13
-12 -9 -15 -29 -14 -75 1 -45 -2 -62 -11 -59 -6 3 -17 -5 -24 -16 -11 -18 -11
-20 0 -9 20 19 34 14 16 -6 -22 -24 -23 -49 -1 -28 20 20 30 21 14 1 -9 -10
-9 -15 -1 -15 6 0 11 -5 11 -11 0 -5 -4 -7 -10 -4 -6 3 -7 -1 -4 -9 3 -9 1
-16 -5 -16 -5 0 -22 -17 -36 -37 -26 -39 -32 -59 -15 -48 13 8 10 -45 -3 -63
-7 -9 -6 -17 1 -24 15 -15 16 -48 2 -48 -5 0 -10 5 -10 10 0 6 -7 10 -15 10
-18 0 -20 -39 -2 -41 6 -1 17 -2 22 -4 6 -1 16 -3 23 -3 20 -3 14 -50 -8 -62
-21 -11 -19 -30 3 -30 7 0 6 4 -3 10 -12 8 -11 10 7 10 17 0 21 -5 19 -25 -3
-27 -23 -55 -38 -55 -6 0 -8 9 -5 21 5 17 3 18 -11 7 -14 -11 -15 -10 -9 6 5
13 3 17 -7 13 -22 -9 -85 40 -92 71 -35 159 -125 263 -267 311 -33 12 -80 21
-104 21 -47 0 -49 3 -31 61 9 32 8 50 -6 103 -21 76 -65 126 -133 152 -24 9
-42 20 -41 23 2 3 18 34 36 68 17 34 32 74 32 88 0 40 -26 82 -71 114 l-40 29
31 22 c16 11 40 23 52 25 22 5 48 30 48 47 0 4 -11 15 -24 23 -23 15 -27 15
-49 0 -37 -24 -46 1 -12 33 38 35 68 107 60 140 -13 53 -38 92 -70 112 -34 21
-93 25 -131 10z m-481 -224 c9 -10 17 -22 17 -27 0 -11 -22 -17 -42 -11 -20 5
-25 42 -5 42 6 0 4 5 -5 11 -10 5 -18 15 -18 21 0 11 24 -5 53 -36z m-53 -61
c0 -8 -4 -15 -10 -15 -5 0 -10 7 -10 15 0 8 5 15 10 15 6 0 10 -7 10 -15z
m-47 -41 c19 -4 25 -9 16 -14 -7 -5 -17 -7 -23 -5 -6 2 -24 6 -39 9 -15 4 -25
11 -22 17 4 5 14 8 23 5 10 -3 30 -8 45 -12z m235 -78 c28 -19 39 -33 33 -39
-6 -6 -27 5 -60 33 -28 23 -51 44 -51 46 0 7 35 -11 78 -40z m379 18 c-3 -3
-12 -4 -19 -1 -8 3 -5 6 6 6 11 1 17 -2 13 -5z m-2572 -184 c-3 -5 -16 -10
-28 -9 -20 1 -20 2 3 9 14 4 26 8 28 9 2 1 0 -3 -3 -9z m-65 -15 c-7 -9 -15
-13 -19 -10 -3 3 1 10 9 15 21 14 24 12 10 -5z m-190 -340 c0 -8 -7 -15 -15
-15 -13 0 -14 3 -3 15 16 18 18 18 18 0z m1360 -15 c0 -5 -2 -10 -4 -10 -3 0
-8 5 -11 10 -3 6 -1 10 4 10 6 0 11 -4 11 -10z m-740 -80 c45 -45 13 -130 -49
-130 -43 0 -60 9 -77 41 -18 35 -10 74 19 94 31 21 83 19 107 -5z m4 -252 c22
-35 -27 -74 -59 -48 -18 15 -20 56 -2 64 22 9 50 1 61 -16z m2589 -88 c52 -57
25 -118 -56 -127 -44 -5 -49 -3 -87 35 -46 45 -52 83 -20 117 19 20 26 21 78
13 44 -6 63 -15 85 -38z m-2539 -346 c17 -16 21 -70 8 -91 -4 -6 -21 -17 -37
-23 -61 -23 -113 62 -66 109 25 25 73 27 95 5z m-213 -159 c52 -77 112 -175
135 -218 l41 -78 35 53 c30 46 97 129 243 303 l34 40 0 -330 c1 -181 -3 -336
-8 -343 -5 -9 -17 -11 -35 -6 -14 3 -32 2 -39 -4 -6 -5 -27 -12 -44 -14 -32
-4 -33 -4 -34 36 -1 41 -16 104 -18 76 -1 -8 -14 -49 -31 -90 -23 -60 -29 -91
-30 -152 0 -46 4 -78 10 -78 6 0 10 -63 10 -170 l0 -170 -70 0 -70 0 0 248 c0
234 -1 253 -24 328 l-25 79 0 -327 -1 -328 -90 0 -90 0 0 647 c0 355 2 644 4
642 2 -2 46 -67 97 -144z m1648 112 c78 -39 85 -57 89 -223 l4 -144 -86 0 -86
0 0 118 c0 64 -4 123 -9 131 -13 20 -99 21 -111 1 -12 -19 -13 -980 -1 -999 6
-9 27 -14 56 -14 29 0 50 5 56 14 5 8 9 94 9 192 l0 177 -40 0 -41 0 3 68 3
67 123 3 122 3 0 -280 0 -280 39 -23 38 -22 -14 -43 c-11 -32 -19 -42 -32 -39
-9 2 -32 8 -51 11 -19 4 -52 18 -73 31 -35 23 -38 24 -62 8 -33 -22 -139 -29
-194 -14 -26 7 -59 26 -78 45 l-33 33 0 546 c0 604 -2 585 64 625 74 46 223
50 305 8z m-901 -2 c-11 -24 -38 -35 -38 -16 0 7 36 38 47 40 2 1 -3 -10 -9
-24z m236 -20 c31 -51 60 -75 95 -75 23 0 24 -2 10 -15 -14 -14 -19 -14 -52 0
-20 8 -61 15 -92 15 l-55 0 0 -165 0 -165 -85 0 -85 0 0 170 c0 160 1 170 19
170 51 0 131 59 131 96 0 10 13 14 44 14 42 0 46 -3 70 -45z m1275 11 c27 -14
64 -43 82 -64 19 -21 42 -42 52 -45 40 -15 10 -32 -61 -35 -68 -3 -73 -2 -81
21 -11 28 -53 40 -97 28 l-29 -7 0 -505 0 -504 48 -3 c77 -5 77 -5 77 199 l0
179 -35 0 -35 0 0 70 0 71 118 -3 117 -3 -4 -277 -4 -277 32 -18 c21 -12 31
-26 31 -42 0 -14 10 -35 22 -48 l21 -23 -62 0 c-64 0 -91 9 -126 41 -19 17
-23 17 -65 3 -58 -20 -180 -15 -233 11 -76 36 -72 5 -72 610 0 489 2 543 17
571 18 33 55 61 97 75 43 14 137 1 190 -25z m805 -662 c14 -87 37 -240 51
-339 14 -99 28 -195 31 -212 l5 -33 -79 0 c-91 0 -87 -5 -99 110 l-6 61 -86
-3 -86 -3 -7 -50 c-5 -27 -10 -65 -13 -82 l-6 -33 -79 0 c-72 0 -80 2 -80 19
0 28 94 580 133 776 l33 170 62 84 c35 46 75 105 89 130 15 25 31 52 37 60 7
9 19 -59 42 -241 18 -140 44 -326 58 -414z m-2096 514 c32 -32 -3 -88 -41 -67
-30 17 -16 79 18 79 6 0 16 -5 23 -12z m1642 -160 c40 -73 75 -136 77 -140 10
-18 -11 -4 -74 49 l-67 57 -57 -62 -56 -62 -79 0 -78 0 39 41 c40 40 59 45
106 25 12 -5 24 12 53 80 21 48 40 102 43 120 3 19 9 31 13 29 4 -3 41 -65 80
-137z m-3193 -170 c-3 -8 -6 -5 -6 6 -1 11 2 17 5 13 3 -3 4 -12 1 -19z m1473
-69 l0 -60 68 3 67 3 0 -65 0 -65 -67 -3 -68 -3 0 -39 c0 -22 5 -40 10 -40 15
0 12 -41 -3 -54 -10 -8 -13 -39 -9 -128 l4 -118 104 0 104 0 0 -65 0 -65 -190
0 -190 0 0 380 0 380 85 0 85 0 0 -61z m136 -244 c15 -23 15 -27 0 -50 -19
-29 -42 -32 -68 -8 -35 32 -15 82 34 83 10 0 25 -11 34 -25z m-545 -47 c2 -24
3 -125 1 -225 l-3 -183 -74 0 -75 0 0 199 0 198 24 -4 c18 -4 29 2 41 20 16
25 32 33 66 36 13 1 18 -9 20 -41z m679 -23 c15 -19 4 -52 -21 -60 -38 -12
-65 35 -37 63 16 16 43 15 58 -3z m-1550 -35 c0 -14 -18 -21 -25 -10 -4 6 -11
7 -17 4 -6 -4 -8 -3 -5 2 7 12 47 15 47 4z m-36 -48 c3 -5 -1 -9 -9 -9 -8 0
-12 4 -9 9 3 4 7 8 9 8 2 0 6 -4 9 -8z m1114 -514 l20 -43 16 38 c26 60 46 49
46 -28 0 -37 -4 -65 -10 -65 -5 0 -10 19 -11 43 l0 42 -16 -32 c-21 -42 -31
-41 -49 2 -20 48 -27 44 -18 -10 5 -38 4 -45 -10 -45 -13 0 -16 12 -16 63 0
91 17 103 48 35z m252 33 c0 -11 -25 -21 -51 -21 -10 0 -19 -7 -19 -15 0 -10
10 -15 30 -15 17 0 30 -4 30 -10 0 -5 -13 -10 -30 -10 -23 0 -30 -4 -30 -20 0
-16 7 -20 35 -20 19 0 35 -4 35 -10 0 -5 -20 -10 -45 -10 l-45 0 0 63 c0 35 3
67 7 70 10 10 83 8 83 -2z m160 -6 c0 -10 -11 -15 -35 -15 -24 0 -35 -5 -35
-15 0 -10 10 -15 30 -15 17 0 30 -4 30 -10 0 -5 -13 -10 -30 -10 -23 0 -30 -4
-30 -20 0 -16 7 -20 35 -20 19 0 35 -4 35 -10 0 -5 -20 -10 -45 -10 l-45 0 0
64 c0 69 3 74 58 75 22 1 32 -4 32 -14z m166 0 c18 -13 16 -14 -23 -15 -47 0
-60 -19 -44 -64 8 -19 18 -26 36 -26 16 0 25 6 25 15 0 8 -9 15 -20 15 -11 0
-20 5 -20 10 0 6 15 10 33 10 32 0 33 -1 29 -35 -4 -33 -6 -35 -42 -35 -49 0
-70 21 -70 70 0 59 51 89 96 55z m168 9 c31 -12 17 -30 -19 -26 -46 5 -46 -13
0 -32 40 -17 53 -39 34 -62 -14 -18 -80 -16 -86 3 -3 8 6 10 31 6 47 -7 49 16
3 37 -37 17 -47 48 -21 67 20 14 34 16 58 7z m180 0 c28 -11 17 -23 -21 -26
-37 -3 -38 -4 -38 -43 0 -36 3 -40 28 -43 19 -2 27 1 27 12 0 9 -7 16 -15 16
-8 0 -15 5 -15 10 0 6 14 10 31 10 28 0 30 -2 27 -32 -3 -30 -6 -33 -41 -36
-51 -4 -67 11 -67 64 0 57 37 86 84 68z m182 -9 c18 -13 16 -14 -23 -15 -50 0
-56 -16 -13 -32 34 -11 53 -39 44 -63 -10 -25 -88 -17 -92 10 -3 16 -1 18 9 8
15 -15 59 -17 59 -4 0 5 -16 18 -35 30 -38 22 -46 54 -17 70 24 15 45 13 68
-4z m160 0 c20 -15 15 -18 -28 -15 -38 2 -35 -14 7 -39 43 -25 46 -55 7 -69
-42 -15 -95 13 -62 33 6 3 10 1 10 -4 0 -14 47 -14 55 -1 3 5 -11 17 -32 27
-42 20 -52 43 -28 67 20 20 45 20 71 1z m170 -56 c14 -42 18 -65 11 -68 -6 -2
-13 1 -15 8 -5 14 -72 15 -72 1 0 -5 -5 -10 -11 -10 -14 0 -5 37 22 98 11 25
24 42 31 40 7 -3 22 -33 34 -69z m145 18 l24 -42 3 43 c2 28 8 42 18 42 11 0
14 -15 14 -65 0 -56 -3 -65 -18 -65 -10 0 -27 18 -42 45 -14 25 -27 45 -31 45
-4 0 -4 -20 -1 -45 4 -37 2 -45 -12 -45 -13 0 -16 11 -16 63 0 91 18 99 61 24z
m229 38 c0 -8 -9 -15 -20 -15 -18 0 -20 -7 -20 -55 0 -30 -4 -55 -10 -55 -5 0
-10 25 -10 55 0 48 -2 55 -20 55 -11 0 -20 7 -20 15 0 11 12 15 50 15 38 0 50
-4 50 -15z m-2740 -679 c0 -2 -8 -10 -17 -17 -16 -13 -17 -12 -4 4 13 16 21
21 21 13z m3775 -686 c-3 -5 -10 -10 -16 -10 -5 0 -9 5 -9 10 0 6 7 10 16 10
8 0 12 -4 9 -10z"/>
<path d="M4462 2292 c-7 -48 -20 -140 -30 -204 l-19 -118 59 0 c33 0 58 4 58
10 0 19 -50 393 -53 396 -1 2 -8 -36 -15 -84z"/>
<path d="M3666 1428 c-9 -35 -8 -38 15 -38 16 0 19 4 14 23 -11 35 -22 41 -29
15z"/>
<path d="M2576 4627 c-35 -59 -32 -72 27 -105 61 -34 117 -93 148 -154 12 -24
29 -52 39 -63 10 -11 21 -30 25 -43 3 -12 11 -20 16 -17 5 3 6 0 3 -8 -9 -26
13 -28 50 -6 20 11 36 22 36 24 0 2 -9 22 -19 46 -13 29 -17 47 -10 55 16 19
49 4 55 -25 3 -14 9 -35 13 -45 7 -18 8 -18 29 4 19 20 22 21 22 6 0 -15 6
-16 48 -10 47 6 82 24 48 24 -11 0 -16 6 -14 18 2 12 13 17 33 17 25 0 30 -4
29 -22 0 -13 3 -23 8 -23 4 0 8 4 8 9 0 5 7 17 16 25 14 15 13 16 -9 16 -20 0
-25 5 -23 25 0 14 4 25 9 25 4 0 7 8 7 18 1 16 1 16 14 0 7 -10 17 -18 22 -18
4 0 3 5 -4 12 -7 7 -12 22 -12 35 0 13 -4 23 -10 23 -5 0 -10 4 -10 10 0 5 7
7 16 3 14 -5 15 -3 5 15 -6 11 -11 28 -11 37 0 19 -51 94 -63 95 -12 0 -87
-62 -87 -72 0 -5 9 -6 20 -3 11 3 30 3 42 -1 19 -6 19 -7 5 -16 -10 -5 -17
-16 -17 -23 0 -22 -30 -18 -51 7 -11 11 -19 25 -19 30 0 4 -9 -1 -20 -12 -12
-12 -25 -18 -31 -14 -5 3 -15 -8 -22 -25 -9 -25 -16 -30 -37 -27 -20 2 -25 8
-23 30 2 33 -5 33 -17 0 -7 -17 -14 -23 -22 -17 -16 9 -37 14 -60 14 -10 0
-18 5 -18 10 0 6 -4 7 -10 4 -5 -3 -10 -1 -10 4 0 6 -5 11 -10 11 -6 0 -24 16
-41 35 -20 22 -40 35 -56 35 -13 0 -22 3 -19 8 2 4 -1 17 -7 29 -12 22 -12 22
-31 -10z"/>
<path d="M3360 4569 c0 -5 5 -7 10 -4 6 3 10 8 10 11 0 2 -4 4 -10 4 -5 0 -10
-5 -10 -11z"/>
<path d="M4116 4451 c-9 -14 5 -42 18 -38 15 5 14 39 -1 44 -6 2 -14 0 -17 -6z"/>
<path d="M4459 4401 c-70 -22 -99 -61 -99 -133 0 -140 186 -190 252 -67 57
106 -41 234 -153 200z"/>
<path d="M4220 4345 c0 -8 5 -15 10 -15 6 0 10 7 10 15 0 8 -4 15 -10 15 -5 0
-10 -7 -10 -15z"/>
<path d="M4227 4274 c-9 -10 2 -24 19 -24 8 0 14 7 14 15 0 15 -21 21 -33 9z"/>
<path d="M2700 4241 c0 -5 -3 -16 -6 -24 -4 -12 0 -14 14 -10 28 7 37 43 11
43 -10 0 -19 -4 -19 -9z"/>
<path d="M2770 4211 l-25 -28 32 -10 c26 -8 36 -7 47 6 13 14 12 19 -4 39 -10
12 -20 22 -22 22 -1 -1 -14 -13 -28 -29z"/>
<path d="M2653 4159 l-31 -32 41 -39 42 -39 23 26 c29 34 28 39 -10 81 l-33
35 -32 -32z"/>
<path d="M2385 4161 c-10 -17 18 -61 42 -67 31 -8 73 3 73 19 0 20 -22 37 -48
37 -13 0 -32 5 -42 10 -11 6 -21 6 -25 1z"/>
<path d="M2956 4128 c-29 -41 -17 -70 34 -82 32 -8 46 2 54 39 6 28 3 33 -29
48 -44 21 -41 21 -59 -5z"/>
<path d="M3196 4124 c-9 -8 -16 -22 -16 -29 0 -31 51 -58 65 -35 4 6 10 8 15
5 15 -9 24 44 10 60 -16 20 -54 19 -74 -1z"/>
<path d="M1565 4061 c-3 -5 -1 -12 5 -16 5 -3 10 1 10 9 0 18 -6 21 -15 7z"/>
<path d="M4218 4051 c-9 -15 -15 -17 -25 -9 -9 7 -13 7 -13 -1 0 -6 5 -11 11
-11 5 0 15 -14 21 -30 17 -50 78 -54 100 -6 25 56 -62 108 -94 57z"/>
<path d="M1517 4030 c-7 -26 -4 -34 11 -29 4 2 5 15 2 29 l-6 25 -7 -25z"/>
<path d="M2593 3995 c-9 -19 -15 -36 -12 -37 2 -2 19 -11 37 -20 l33 -18 15
36 c8 20 14 37 12 38 -43 27 -58 36 -63 36 -3 0 -13 -16 -22 -35z"/>
<path d="M3358 4009 c-10 -5 -18 -19 -18 -29 0 -16 5 -19 30 -14 22 5 31 2 36
-10 10 -26 24 -19 24 12 0 46 -32 65 -72 41z"/>
<path d="M1630 3969 c0 -5 5 -7 10 -4 6 3 10 8 10 11 0 2 -4 4 -10 4 -5 0 -10
-5 -10 -11z"/>
<path d="M1778 3953 c7 -3 16 -2 19 1 4 3 -2 6 -13 5 -11 0 -14 -3 -6 -6z"/>
<path d="M1630 3944 c0 -13 18 -39 24 -34 2 3 -2 14 -10 24 -8 11 -14 16 -14
10z"/>
<path d="M1895 3940 c4 -6 11 -8 16 -5 14 9 11 15 -7 15 -8 0 -12 -5 -9 -10z"/>
<path d="M1860 3925 c-11 -13 -10 -14 4 -9 9 3 16 10 16 15 0 13 -6 11 -20 -6z"/>
<path d="M1720 3880 c-11 -11 -20 -29 -20 -40 0 -24 34 -60 55 -60 17 0 65 43
65 58 0 19 -42 62 -61 62 -10 0 -28 -9 -39 -20z"/>
<path d="M4415 3878 c-51 -27 -60 -84 -20 -123 49 -50 135 -22 135 44 0 43 -9
60 -41 76 -33 18 -47 18 -74 3z"/>
<path d="M2760 3841 c-5 -11 -10 -27 -10 -35 0 -20 35 -56 55 -56 23 0 55 37
55 65 0 43 -79 64 -100 26z"/>
<path d="M5300 3078 c0 -431 -2 -895 -5 -1033 -5 -204 -3 -245 7 -225 16 32
24 2040 8 2040 -7 0 -10 -276 -10 -782z"/>
<path d="M3417 3792 c-21 -23 -22 -46 -1 -66 24 -24 61 -20 80 9 15 23 15 27
0 50 -20 30 -56 33 -79 7z"/>
<path d="M3120 3770 c0 -5 5 -10 11 -10 5 0 7 5 4 10 -3 6 -8 10 -11 10 -2 0
-4 -4 -4 -10z"/>
<path d="M4750 3445 c0 -8 4 -15 10 -15 5 0 7 7 4 15 -4 8 -8 15 -10 15 -2 0
-4 -7 -4 -15z"/>
<path d="M4748 3383 c7 -3 16 -2 19 1 4 3 -2 6 -13 5 -11 0 -14 -3 -6 -6z"/>
<path d="M879 2668 c-6 -13 -2 -141 3 -144 5 -3 8 29 8 70 0 62 -4 89 -11 74z"/>
<path d="M870 2485 c1 -26 2 -28 11 -12 8 14 8 22 0 30 -8 8 -11 3 -11 -18z"/>
<path d="M872 2400 c0 -14 2 -19 5 -12 2 6 2 18 0 25 -3 6 -5 1 -5 -13z"/>
<path d="M871 2054 c0 -11 3 -14 6 -6 3 7 2 16 -1 19 -3 4 -6 -2 -5 -13z"/>
<path d="M5140 2041 c0 -6 4 -13 10 -16 6 -3 7 1 4 9 -7 18 -14 21 -14 7z"/>
<path d="M1035 1810 c3 -5 14 -10 23 -10 15 0 15 2 2 10 -20 13 -33 13 -25 0z"/>
<path d="M1066 1672 c-3 -5 1 -9 9 -9 8 0 12 4 9 9 -3 4 -7 8 -9 8 -2 0 -6 -4
-9 -8z"/>
<path d="M1240 1550 c0 -5 5 -10 10 -10 6 0 10 5 10 10 0 6 -4 10 -10 10 -5 0
-10 -4 -10 -10z"/>
<path d="M1170 1512 c-23 -20 -30 -31 -22 -36 8 -5 11 -2 10 6 -2 7 3 12 10
10 8 -1 11 2 6 9 -4 8 1 9 17 5 13 -3 18 -3 11 0 -10 5 -10 9 -1 20 18 22 6
16 -31 -14z"/>
<path d="M1220 1514 c0 -8 5 -12 10 -9 6 3 10 10 10 16 0 5 -4 9 -10 9 -5 0
-10 -7 -10 -16z"/>
<path d="M1245 1231 c-3 -5 -2 -12 3 -15 5 -3 9 1 9 9 0 17 -3 19 -12 6z"/>
<path d="M1285 1180 c4 -6 11 -8 16 -5 14 9 11 15 -7 15 -8 0 -12 -5 -9 -10z"/>
<path d="M1252 969 c2 -6 8 -10 13 -10 5 0 11 4 13 10 2 6 -4 11 -13 11 -9 0
-15 -5 -13 -11z"/>
<path d="M1255 890 c-3 -5 -4 -14 -1 -19 4 -5 0 -12 -6 -14 -7 -3 -8 -6 -2 -6
5 -1 19 6 30 14 12 9 14 14 6 15 -7 0 -10 5 -7 10 3 6 2 10 -4 10 -5 0 -13 -4
-16 -10z"/>
<path d="M1467 426 c-4 -10 0 -14 14 -13 10 1 18 6 16 11 -5 16 -24 18 -30 2z"/>
<path d="M1461 384 c0 -11 3 -14 6 -6 3 7 2 16 -1 19 -3 4 -6 -2 -5 -13z"/>
<path d="M5173 65 c0 -8 4 -12 9 -9 5 3 6 10 3 15 -9 13 -12 11 -12 -6z"/>
</g>
</svg>
